<svg xmlns="http://www.w3.org/2000/svg" xmlns:xlink="http://www.w3.org/1999/xlink" width="500" zoomAndPan="magnify" viewBox="0 0 375 374.999991" height="500" preserveAspectRatio="xMidYMid meet" version="1.0"><defs><clipPath id="a80aefa454"><path d="M 98.261719 129.941406 L 263.261719 129.941406 L 263.261719 236.441406 L 98.261719 236.441406 Z M 98.261719 129.941406 " clip-rule="nonzero"/></clipPath></defs><g clip-path="url(#a80aefa454)"><path fill="#5a3114" d="M 98.246094 129.957031 L 98.246094 236.476562 L 263.222656 236.476562 L 263.222656 129.957031 L 98.246094 129.957031 " fill-opacity="1" fill-rule="nonzero"/></g><path fill="#4b2111" d="M 258.597656 232.773438 L 102.871094 232.773438 C 101.988281 232.773438 101.273438 232.054688 101.273438 231.171875 L 101.273438 135.261719 C 101.273438 134.378906 101.988281 133.664062 102.871094 133.664062 L 258.597656 133.664062 C 259.480469 133.664062 260.195312 134.378906 260.195312 135.261719 L 260.195312 231.171875 C 260.195312 232.054688 259.480469 232.773438 258.597656 232.773438 M 102.871094 231.171875 L 258.597656 231.171875 L 258.597656 135.261719 L 102.871094 135.261719 L 102.871094 231.171875 " fill-opacity="1" fill-rule="nonzero"/><path fill="#926614" d="M 258.597656 231.171875 L 102.871094 231.171875 L 102.871094 135.261719 L 258.597656 135.261719 L 258.597656 231.171875 M 227.3125 227.136719 L 254.636719 227.136719 L 254.636719 139.296875 L 106.832031 139.296875 L 106.832031 227.136719 L 227.3125 227.136719 " fill-opacity="1" fill-rule="nonzero"/><path fill="#e5e6e3" d="M 106.832031 227.136719 L 254.636719 227.136719 L 254.636719 139.296875 L 106.832031 139.296875 Z M 106.832031 227.136719 " fill-opacity="1" fill-rule="nonzero"/><path fill="#dbdcd9" d="M 254.636719 227.136719 L 227.3125 227.136719 L 224.019531 221.386719 L 230.960938 221.386719 L 230.960938 218.566406 L 222.410156 218.566406 L 220.492188 215.21875 C 220.667969 215.027344 220.839844 214.832031 221.011719 214.632812 C 221.203125 214.683594 221.394531 214.707031 221.589844 214.707031 C 224.070312 214.707031 226.792969 210.96875 225.441406 208.867188 C 225.386719 208.789062 225.332031 208.714844 225.277344 208.640625 C 229.574219 208.613281 233.867188 208.554688 238.164062 208.546875 C 238.738281 208.546875 238.964844 207.824219 238.265625 207.824219 C 238.265625 207.824219 238.261719 207.824219 238.261719 207.824219 C 233.675781 207.832031 229.089844 207.902344 224.5 207.925781 C 223.492188 207.25 222.074219 207.023438 220.554688 207.023438 C 219.054688 207.023438 217.453125 207.246094 216.054688 207.460938 L 215.144531 205.867188 C 217.335938 203.332031 219.453125 200.777344 221.566406 198.214844 L 222.886719 198.214844 L 222.886719 196.613281 C 223.3125 196.097656 223.738281 195.578125 224.164062 195.0625 L 222.886719 196.59375 L 222.886719 196.578125 C 232.523438 184.722656 239.394531 172.539062 246.203125 160.183594 C 249.238281 154.679688 252.453125 144.90625 254.636719 139.296875 L 254.636719 227.136719 M 201.5625 227.136719 L 192.316406 227.136719 L 192.285156 227.074219 C 194.558594 225.484375 196.699219 223.851562 198.726562 222.183594 L 201.5625 227.136719 M 220.0625 214.464844 L 216.71875 208.617188 C 218.402344 208.644531 220.089844 208.652344 221.777344 208.652344 C 222.472656 208.652344 223.167969 208.652344 223.863281 208.648438 C 224.179688 208.871094 224.429688 209.167969 224.578125 209.5625 C 225.039062 210.820312 223.507812 214.007812 221.890625 214.007812 C 221.6875 214.007812 221.484375 213.957031 221.28125 213.847656 C 221.191406 213.796875 221.082031 213.769531 220.972656 213.769531 C 220.773438 213.769531 220.574219 213.847656 220.453125 213.992188 C 220.324219 214.15625 220.191406 214.3125 220.0625 214.464844 M 221.3125 198.480469 L 221.53125 198.214844 L 221.535156 198.214844 C 221.460938 198.304688 221.386719 198.394531 221.3125 198.480469 " fill-opacity="1" fill-rule="nonzero"/><path fill="#b0b2ae" d="M 235.902344 146.621094 L 181.246094 146.621094 L 179.632812 143.800781 L 235.902344 143.800781 L 235.902344 146.621094 M 155.492188 146.621094 L 146.25 146.621094 L 144.636719 143.800781 L 153.882812 143.800781 L 155.492188 146.621094 " fill-opacity="1" fill-rule="nonzero"/><path fill="#b0b2ae" d="M 210.347656 151.554688 L 184.070312 151.554688 L 182.453125 148.734375 L 210.347656 148.734375 L 210.347656 151.554688 M 158.316406 151.554688 L 152.191406 151.554688 L 152.191406 148.734375 L 156.703125 148.734375 L 158.316406 151.554688 " fill-opacity="1" fill-rule="nonzero"/><path fill="#b0b2ae" d="M 222.886719 168.007812 L 193.480469 168.007812 L 190.460938 162.722656 L 222.886719 162.722656 L 222.886719 168.007812 M 167.730469 168.007812 L 158.488281 168.007812 L 155.464844 162.722656 L 164.707031 162.722656 L 167.730469 168.007812 " fill-opacity="1" fill-rule="nonzero"/><path fill="#b0b2ae" d="M 222.886719 181.214844 L 201.035156 181.214844 L 198.015625 175.929688 L 222.886719 175.929688 L 222.886719 181.214844 M 175.285156 181.214844 L 166.042969 181.214844 L 163.019531 175.929688 L 172.265625 175.929688 L 175.285156 181.214844 " fill-opacity="1" fill-rule="nonzero"/><path fill="#b0b2ae" d="M 221.566406 198.214844 L 221.535156 198.214844 C 221.695312 198.023438 221.859375 197.828125 222.019531 197.632812 L 222.886719 196.59375 L 222.886719 196.613281 C 222.445312 197.148438 222.003906 197.683594 221.566406 198.214844 M 221.53125 198.214844 L 210.765625 198.214844 L 207.742188 192.933594 L 222.886719 192.933594 L 222.886719 196.578125 C 222.597656 196.929688 222.3125 197.28125 222.019531 197.632812 L 221.53125 198.214844 M 185.015625 198.214844 L 175.773438 198.214844 L 172.75 192.933594 L 181.992188 192.933594 L 185.015625 198.214844 M 140.542969 198.214844 L 138.582031 198.214844 L 138.582031 194.796875 L 140.542969 198.214844 " fill-opacity="1" fill-rule="nonzero"/><path fill="#a8aaa7" d="M 222.886719 198.214844 L 221.566406 198.214844 C 222.003906 197.683594 222.445312 197.148438 222.886719 196.613281 L 222.886719 198.214844 M 221.535156 198.214844 L 221.53125 198.214844 L 222.019531 197.632812 C 221.859375 197.828125 221.695312 198.023438 221.535156 198.214844 M 222.019531 197.632812 C 222.3125 197.28125 222.597656 196.929688 222.886719 196.578125 L 222.886719 196.59375 L 222.019531 197.632812 " fill-opacity="1" fill-rule="nonzero"/><path fill="#b0b2ae" d="M 153.796875 221.386719 L 138.582031 221.386719 L 138.582031 218.566406 L 152.183594 218.566406 L 153.796875 221.386719 " fill-opacity="1" fill-rule="nonzero"/><path fill="#b0b2ae" d="M 198.269531 221.386719 L 192.882812 221.386719 L 192.882812 218.566406 L 196.660156 218.566406 L 198.269531 221.386719 " fill-opacity="1" fill-rule="nonzero"/><path fill="#a8aaa7" d="M 230.960938 221.386719 L 224.019531 221.386719 L 222.410156 218.566406 L 230.960938 218.566406 L 230.960938 221.386719 " fill-opacity="1" fill-rule="nonzero"/><path fill="#f03a3b" d="M 120.53125 159.519531 C 123.761719 159.992188 127.035156 160.449219 130.347656 160.890625 C 129.019531 172.597656 138.90625 182.601562 151.476562 180.789062 C 149.523438 182.707031 146.984375 184.351562 144.027344 185.492188 C 146.242188 187.699219 149.246094 189.617188 153.078125 190.839844 C 132.75 193.90625 118.011719 177.992188 120.53125 159.519531 " fill-opacity="1" fill-rule="nonzero"/><path fill="#f03a3b" d="M 120.53125 159.519531 C 123.761719 159.992188 127.035156 160.449219 130.347656 160.890625 C 129.019531 172.597656 138.90625 182.601562 151.476562 180.789062 C 149.523438 182.707031 146.984375 184.351562 144.027344 185.492188 C 146.242188 187.699219 149.246094 189.617188 153.078125 190.839844 C 132.75 193.90625 118.011719 177.992188 120.53125 159.519531 " fill-opacity="1" fill-rule="nonzero"/><path fill="#c62f2f" d="M 134.695312 188.007812 C 130.871094 186 127.660156 183.136719 125.246094 179.6875 C 125.53125 177.851562 126.089844 176.054688 126.894531 174.363281 L 134.695312 188.007812 " fill-opacity="1" fill-rule="nonzero"/><path fill="#f03a3b" d="M 129.449219 157.21875 C 131.121094 160.195312 132.8125 163.167969 134.515625 166.132812 C 124.484375 171.785156 121.621094 186.011719 129.691406 194.621094 C 126.921875 194.257812 124.144531 193.28125 121.632812 191.660156 C 120.851562 194.742188 120.660156 198.261719 121.433594 201.96875 C 109.292969 188.320312 114.425781 165.832031 129.449219 157.21875 " fill-opacity="1" fill-rule="nonzero"/><path fill="#f03a3b" d="M 129.449219 157.21875 C 131.121094 160.195312 132.8125 163.167969 134.515625 166.132812 C 124.484375 171.785156 121.621094 186.011719 129.691406 194.621094 C 126.921875 194.257812 124.144531 193.28125 121.632812 191.660156 C 120.851562 194.742188 120.660156 198.261719 121.433594 201.96875 C 109.292969 188.320312 114.425781 165.832031 129.449219 157.21875 " fill-opacity="1" fill-rule="nonzero"/><path fill="#bebdbc" d="M 119.921875 200.136719 C 119.027344 198.917969 118.253906 197.640625 117.597656 196.324219 C 118.253906 197.628906 119.027344 198.894531 119.917969 200.101562 C 119.917969 200.113281 119.921875 200.125 119.921875 200.136719 " fill-opacity="1" fill-rule="nonzero"/><path fill="#c62f2f" d="M 119.917969 200.101562 C 119.027344 198.894531 118.253906 197.628906 117.597656 196.324219 C 113.601562 188.324219 113.875 178.769531 117.46875 170.734375 C 117.777344 170.855469 118.070312 170.996094 118.316406 171.179688 C 119.429688 171.996094 120.042969 173.890625 121.328125 174.386719 C 119.398438 176.550781 118.015625 179.289062 117.410156 182.351562 C 116.289062 188.121094 118.375 193.640625 119.824219 199.074219 C 119.867188 199.414062 119.898438 199.753906 119.917969 200.101562 " fill-opacity="1" fill-rule="nonzero"/><path fill="#fcca12" d="M 120.894531 146.625 C 121.640625 146.363281 122.496094 146.65625 123.339844 146.953125 C 123.957031 147.171875 124.566406 147.390625 125.125 147.390625 C 126.503906 147.386719 127.996094 146.179688 129.3125 146.617188 C 130.640625 147.054688 131.375 148.996094 132.554688 149.828125 C 133.722656 150.648438 135.714844 150.617188 136.640625 151.773438 C 137.53125 152.886719 137.050781 154.828125 137.597656 156.21875 C 138.140625 157.613281 139.875 158.769531 139.96875 160.167969 C 140.066406 161.617188 138.460938 162.851562 138.089844 164.214844 C 137.710938 165.59375 138.460938 167.53125 137.652344 168.722656 C 136.851562 169.902344 134.765625 169.957031 133.597656 170.851562 C 132.472656 171.710938 131.886719 173.707031 130.464844 174.210938 C 129.636719 174.503906 128.714844 174.222656 127.816406 173.941406 C 127.164062 173.738281 126.523438 173.535156 125.929688 173.550781 C 124.46875 173.585938 122.800781 174.851562 121.445312 174.429688 C 120.078125 174.003906 119.464844 172.023438 118.316406 171.179688 C 117.183594 170.34375 115.164062 170.386719 114.34375 169.195312 C 113.558594 168.039062 114.195312 166.042969 113.761719 164.613281 C 113.328125 163.183594 111.753906 161.96875 111.761719 160.535156 C 111.769531 159.050781 113.347656 157.824219 113.753906 156.445312 C 114.164062 155.054688 113.539062 153.074219 114.308594 151.898438 C 115.066406 150.734375 116.980469 150.738281 118.058594 149.878906 C 119.097656 149.046875 119.605469 147.078125 120.894531 146.625 " fill-opacity="1" fill-rule="nonzero"/><path fill="#fddf2e" d="M 122.636719 172.050781 C 122.492188 172.050781 122.351562 172.03125 122.222656 171.992188 C 121.652344 171.8125 121.238281 171.226562 120.796875 170.601562 C 120.453125 170.117188 120.101562 169.609375 119.644531 169.277344 C 119.199219 168.949219 118.625 168.769531 118.070312 168.601562 C 117.355469 168.375 116.679688 168.164062 116.332031 167.664062 C 116.03125 167.230469 116.015625 166.484375 116.023438 165.707031 C 116.027344 165.089844 116.03125 164.449219 115.851562 163.875 C 115.679688 163.304688 115.316406 162.792969 114.972656 162.296875 C 114.535156 161.675781 114.144531 161.066406 114.140625 160.523438 C 114.140625 159.902344 114.550781 159.308594 114.980469 158.679688 C 115.3125 158.195312 115.652344 157.699219 115.8125 157.15625 C 115.972656 156.605469 115.960938 155.984375 115.945312 155.378906 C 115.945312 155.328125 115.945312 155.277344 115.945312 155.226562 L 119.710938 161.808594 C 118.34375 161.613281 117.023438 161.238281 115.769531 160.707031 C 115.738281 160.835938 115.71875 160.96875 115.71875 161.101562 C 115.722656 162.113281 116.855469 162.964844 117.171875 163.972656 C 117.488281 164.984375 117.050781 166.390625 117.617188 167.203125 C 118.210938 168.042969 119.636719 168.011719 120.441406 168.601562 C 121.257812 169.199219 121.703125 170.597656 122.667969 170.898438 C 122.804688 170.941406 122.945312 170.960938 123.089844 170.960938 C 123.601562 170.960938 124.15625 170.730469 124.703125 170.539062 L 125.164062 171.34375 C 124.832031 171.429688 124.5 171.546875 124.175781 171.664062 C 123.628906 171.863281 123.101562 172.050781 122.636719 172.050781 " fill-opacity="1" fill-rule="nonzero"/><path fill="#a3820b" d="M 122.621094 172.710938 C 122.417969 172.710938 122.21875 172.6875 122.019531 172.625 C 121.246094 172.382812 120.753906 171.679688 120.273438 170.996094 C 119.945312 170.53125 119.636719 170.089844 119.269531 169.820312 C 118.90625 169.554688 118.40625 169.398438 117.878906 169.234375 C 117.09375 168.992188 116.285156 168.738281 115.816406 168.0625 C 115.414062 167.476562 115.382812 166.558594 115.390625 165.710938 C 115.394531 165.144531 115.398438 164.558594 115.257812 164.089844 C 115.113281 163.617188 114.785156 163.148438 114.46875 162.695312 C 113.992188 162.011719 113.523438 161.257812 113.523438 160.527344 C 113.523438 159.6875 114.011719 158.976562 114.484375 158.289062 C 114.796875 157.828125 115.097656 157.394531 115.226562 156.953125 C 115.355469 156.507812 115.34375 155.960938 115.332031 155.386719 C 115.324219 154.984375 115.316406 154.582031 115.355469 154.195312 L 115.636719 154.6875 C 115.617188 155.488281 115.722656 156.359375 115.519531 157.054688 C 115.175781 158.222656 113.832031 159.265625 113.832031 160.527344 C 113.832031 161.738281 115.179688 162.769531 115.554688 163.980469 C 115.933594 165.195312 115.398438 166.886719 116.074219 167.863281 C 116.777344 168.875 118.492188 168.839844 119.457031 169.550781 C 120.433594 170.261719 120.960938 171.945312 122.121094 172.308594 C 122.285156 172.359375 122.453125 172.382812 122.625 172.382812 C 123.484375 172.382812 124.4375 171.847656 125.335938 171.644531 L 125.507812 171.945312 C 125.152344 172.011719 124.773438 172.148438 124.382812 172.289062 C 123.800781 172.5 123.203125 172.710938 122.621094 172.710938 " fill-opacity="1" fill-rule="nonzero"/><path fill="#a48f1d" d="M 122.625 172.382812 C 122.453125 172.382812 122.285156 172.359375 122.121094 172.308594 C 120.960938 171.945312 120.433594 170.261719 119.457031 169.550781 C 118.492188 168.839844 116.777344 168.875 116.074219 167.863281 C 115.398438 166.886719 115.933594 165.195312 115.554688 163.980469 C 115.179688 162.769531 113.832031 161.738281 113.832031 160.527344 C 113.832031 159.265625 115.175781 158.222656 115.519531 157.054688 C 115.722656 156.359375 115.617188 155.488281 115.636719 154.6875 L 115.945312 155.226562 C 115.945312 155.277344 115.945312 155.328125 115.945312 155.378906 C 115.960938 155.984375 115.972656 156.605469 115.8125 157.15625 C 115.652344 157.699219 115.3125 158.195312 114.980469 158.679688 C 114.550781 159.308594 114.140625 159.902344 114.140625 160.523438 C 114.144531 161.066406 114.535156 161.675781 114.972656 162.296875 C 115.316406 162.792969 115.679688 163.304688 115.851562 163.875 C 116.03125 164.449219 116.027344 165.089844 116.023438 165.707031 C 116.015625 166.484375 116.03125 167.230469 116.332031 167.664062 C 116.679688 168.164062 117.355469 168.375 118.070312 168.601562 C 118.625 168.769531 119.199219 168.949219 119.644531 169.277344 C 120.101562 169.609375 120.453125 170.117188 120.796875 170.601562 C 121.238281 171.226562 121.652344 171.8125 122.222656 171.992188 C 122.351562 172.03125 122.492188 172.050781 122.636719 172.050781 C 123.101562 172.050781 123.628906 171.863281 124.175781 171.664062 C 124.5 171.546875 124.832031 171.429688 125.164062 171.34375 L 125.335938 171.644531 C 124.4375 171.847656 123.484375 172.382812 122.625 172.382812 " fill-opacity="1" fill-rule="nonzero"/><path fill="#feec6a" d="M 123.089844 170.960938 C 122.945312 170.960938 122.804688 170.941406 122.667969 170.898438 C 121.703125 170.597656 121.257812 169.199219 120.441406 168.601562 C 119.636719 168.011719 118.210938 168.042969 117.617188 167.203125 C 117.050781 166.390625 117.488281 164.984375 117.171875 163.972656 C 116.855469 162.964844 115.722656 162.113281 115.71875 161.101562 C 115.71875 160.96875 115.738281 160.835938 115.769531 160.707031 C 117.023438 161.238281 118.34375 161.613281 119.710938 161.808594 L 124.703125 170.539062 C 124.15625 170.730469 123.601562 170.960938 123.089844 170.960938 " fill-opacity="1" fill-rule="nonzero"/><path fill="#f1f2f1" d="M 192.199219 227.136719 L 157.085938 227.136719 L 153.796875 221.386719 L 173.089844 221.386719 L 173.089844 218.566406 L 152.183594 218.566406 L 150.601562 215.800781 C 150.925781 215.496094 151.238281 215.171875 151.546875 214.847656 C 151.441406 215.125 151.339844 215.40625 151.226562 215.6875 C 151.167969 215.835938 151.269531 215.886719 151.425781 215.886719 C 151.679688 215.886719 152.085938 215.75 152.152344 215.699219 C 152.746094 215.265625 153.3125 214.8125 153.867188 214.34375 C 153.863281 214.378906 153.855469 214.410156 153.851562 214.449219 C 153.828125 214.613281 153.949219 214.671875 154.113281 214.671875 C 154.359375 214.671875 154.691406 214.546875 154.777344 214.460938 C 154.839844 214.417969 154.902344 214.371094 154.964844 214.324219 C 155.0625 215.050781 155.199219 215.769531 155.25 216.5 C 155.261719 216.621094 155.355469 216.664062 155.484375 216.664062 C 155.730469 216.664062 156.097656 216.503906 156.175781 216.445312 C 157.179688 215.691406 157.464844 215.484375 158.144531 215.484375 C 158.386719 215.484375 158.675781 215.507812 159.066406 215.546875 C 159.167969 215.558594 159.277344 215.5625 159.382812 215.5625 C 160.40625 215.5625 161.546875 215.140625 162.402344 214.695312 C 165.242188 213.210938 167.527344 210.9375 169.699219 208.609375 C 173.445312 208.265625 177.203125 207.636719 180.933594 207.238281 L 192.285156 227.074219 C 192.253906 227.097656 192.226562 227.113281 192.199219 227.136719 " fill-opacity="1" fill-rule="nonzero"/><path fill="#ececeb" d="M 192.316406 227.136719 L 192.199219 227.136719 C 192.226562 227.113281 192.253906 227.097656 192.285156 227.074219 L 192.316406 227.136719 " fill-opacity="1" fill-rule="nonzero"/><path fill="#d4d5d2" d="M 173.089844 221.386719 L 153.796875 221.386719 L 152.183594 218.566406 L 173.089844 218.566406 L 173.089844 221.386719 " fill-opacity="1" fill-rule="nonzero"/><path fill="#f1f2f1" d="M 156.226562 215.667969 C 156.136719 214.945312 155.996094 214.230469 155.929688 213.5 C 155.917969 213.382812 155.800781 213.347656 155.660156 213.347656 C 155.484375 213.347656 155.28125 213.402344 155.214844 213.433594 C 155.164062 213.453125 155.113281 213.476562 155.0625 213.503906 C 155.109375 213.359375 155.164062 213.21875 155.230469 213.074219 C 155.292969 212.929688 155.179688 212.882812 155.011719 212.882812 C 154.753906 212.882812 154.375 212.996094 154.304688 213.0625 C 153.761719 213.5625 153.214844 214.046875 152.652344 214.511719 C 152.828125 214.050781 153.019531 213.59375 153.269531 213.152344 C 153.382812 212.949219 153.25 212.882812 153.054688 212.882812 C 152.8125 212.882812 152.46875 212.984375 152.378906 213.0625 C 151.714844 213.628906 151.105469 214.25 150.496094 214.875 C 150.429688 214.941406 150.335938 215.035156 150.226562 215.148438 L 149.089844 213.160156 C 149.773438 211.582031 150.59375 210.046875 151.027344 208.367188 C 151.074219 208.203125 150.929688 208.152344 150.757812 208.152344 C 150.582031 208.152344 150.375 208.207031 150.3125 208.230469 C 149.210938 208.636719 148.234375 209.300781 147.339844 210.105469 L 140.542969 198.214844 L 175.773438 198.214844 L 180.636719 206.71875 C 177.175781 207.09375 173.730469 207.640625 170.265625 208 C 170.410156 207.839844 170.554688 207.683594 170.703125 207.527344 C 170.785156 207.433594 170.84375 207.359375 170.769531 207.246094 C 169.632812 205.523438 167.40625 204.875 164.980469 204.875 C 161.761719 204.875 158.183594 206.015625 156.324219 207.296875 C 156.117188 207.4375 156.035156 207.632812 156.324219 207.71875 C 159.148438 208.550781 162 208.851562 164.863281 208.851562 C 166.128906 208.851562 167.394531 208.792969 168.664062 208.695312 C 166.394531 211.210938 162.980469 214.933594 159.667969 214.933594 C 159.140625 214.933594 158.617188 214.839844 158.101562 214.628906 C 158.027344 214.601562 157.941406 214.585938 157.851562 214.585938 C 157.640625 214.585938 157.40625 214.660156 157.28125 214.796875 C 156.957031 215.140625 156.597656 215.410156 156.226562 215.667969 M 138.582031 194.796875 L 134.703125 188.011719 C 138.597656 190.058594 143.128906 191.222656 148.09375 191.222656 C 149.707031 191.222656 151.375 191.097656 153.078125 190.839844 C 149.246094 189.617188 146.242188 187.699219 144.027344 185.492188 C 146.765625 184.4375 149.144531 182.949219 151.03125 181.214844 L 166.042969 181.214844 L 172.75 192.933594 L 138.582031 192.933594 L 138.582031 194.796875 M 138.582031 178.167969 C 136.109375 176.605469 134.066406 174.472656 132.621094 171.96875 C 132.917969 171.535156 133.230469 171.132812 133.597656 170.851562 C 134.765625 169.957031 136.851562 169.902344 137.652344 168.722656 C 138.460938 167.53125 137.710938 165.59375 138.089844 164.214844 C 138.1875 163.859375 138.367188 163.511719 138.582031 163.164062 L 138.582031 168.007812 L 158.488281 168.007812 L 163.019531 175.929688 L 138.582031 175.929688 L 138.582031 178.167969 M 155.464844 162.722656 L 138.867188 162.722656 C 139.421875 161.898438 140.03125 161.074219 139.96875 160.167969 C 139.875 158.769531 138.140625 157.613281 137.597656 156.21875 C 137.050781 154.828125 137.53125 152.886719 136.640625 151.773438 C 135.714844 150.617188 133.722656 150.648438 132.554688 149.828125 C 131.378906 149 130.644531 147.070312 129.324219 146.621094 L 146.25 146.621094 L 155.464844 162.722656 M 114.175781 152.140625 L 106.832031 139.296875 L 142.0625 139.296875 L 144.636719 143.800781 L 126.636719 143.800781 L 126.636719 146.621094 L 127.953125 146.621094 C 127.015625 146.847656 126.046875 147.386719 125.125 147.390625 C 125.125 147.390625 125.125 147.390625 125.121094 147.390625 C 124.5625 147.390625 123.953125 147.171875 123.339844 146.953125 C 122.722656 146.738281 122.105469 146.523438 121.523438 146.523438 C 121.308594 146.523438 121.097656 146.554688 120.894531 146.625 C 119.605469 147.078125 119.097656 149.046875 118.058594 149.878906 C 116.980469 150.738281 115.066406 150.734375 114.308594 151.898438 C 114.261719 151.972656 114.214844 152.054688 114.175781 152.140625 " fill-opacity="1" fill-rule="nonzero"/><path fill="#d4d5d2" d="M 146.25 146.621094 L 129.324219 146.621094 C 129.320312 146.617188 129.316406 146.617188 129.3125 146.617188 C 129.109375 146.550781 128.902344 146.519531 128.695312 146.519531 C 128.453125 146.519531 128.203125 146.558594 127.953125 146.621094 L 126.636719 146.621094 L 126.636719 143.800781 L 144.636719 143.800781 L 146.25 146.621094 " fill-opacity="1" fill-rule="nonzero"/><path fill="#d4d5d2" d="M 158.488281 168.007812 L 138.582031 168.007812 L 138.582031 163.164062 C 138.671875 163.015625 138.769531 162.871094 138.867188 162.722656 L 155.464844 162.722656 L 158.488281 168.007812 " fill-opacity="1" fill-rule="nonzero"/><path fill="#d4d5d2" d="M 166.042969 181.214844 L 151.03125 181.214844 C 151.183594 181.074219 151.332031 180.933594 151.476562 180.789062 C 150.476562 180.933594 149.5 181 148.539062 181 C 144.820312 181 141.417969 179.960938 138.582031 178.167969 L 138.582031 175.929688 L 163.019531 175.929688 L 166.042969 181.214844 " fill-opacity="1" fill-rule="nonzero"/><path fill="#d4d5d2" d="M 175.773438 198.214844 L 140.542969 198.214844 L 138.582031 194.796875 L 138.582031 192.933594 L 172.75 192.933594 L 175.773438 198.214844 " fill-opacity="1" fill-rule="nonzero"/><path fill="#f46c63" d="M 148.09375 191.222656 C 143.128906 191.222656 138.597656 190.058594 134.703125 188.011719 L 134.695312 188.007812 C 138.582031 190.042969 143.101562 191.203125 148.066406 191.203125 C 148.863281 191.203125 149.671875 191.171875 150.488281 191.109375 C 150.15625 190.949219 149.816406 190.800781 149.476562 190.660156 C 143.703125 189.085938 137.585938 187.976562 133.429688 184 C 130.660156 181.347656 129.171875 177.835938 128.953125 174.253906 C 129.203125 174.300781 129.453125 174.332031 129.695312 174.332031 C 129.957031 174.332031 130.214844 174.296875 130.464844 174.210938 C 131.421875 173.871094 132 172.859375 132.621094 171.96875 C 135.722656 177.34375 141.574219 181 148.539062 181 C 149.5 181 150.476562 180.933594 151.476562 180.789062 C 151.332031 180.933594 151.183594 181.074219 151.03125 181.214844 C 149.144531 182.949219 146.765625 184.4375 144.027344 185.492188 C 146.242188 187.699219 149.246094 189.617188 153.078125 190.839844 C 151.375 191.097656 149.707031 191.222656 148.09375 191.222656 " fill-opacity="1" fill-rule="nonzero"/><path fill="#de6259" d="M 148.066406 191.203125 C 143.101562 191.203125 138.582031 190.042969 134.695312 188.007812 L 126.894531 174.363281 C 126.988281 174.160156 127.089844 173.957031 127.199219 173.753906 C 127.402344 173.8125 127.609375 173.878906 127.816406 173.941406 C 128.195312 174.058594 128.578125 174.179688 128.953125 174.253906 C 129.171875 177.835938 130.660156 181.347656 133.429688 184 C 137.585938 187.976562 143.703125 189.085938 149.476562 190.660156 C 149.816406 190.800781 150.15625 190.949219 150.488281 191.109375 C 149.671875 191.171875 148.863281 191.203125 148.066406 191.203125 " fill-opacity="1" fill-rule="nonzero"/><path fill="#f46c63" d="M 126.894531 174.363281 L 126.449219 173.585938 C 126.691406 173.621094 126.945312 173.683594 127.199219 173.753906 C 127.089844 173.957031 126.988281 174.160156 126.894531 174.363281 " fill-opacity="1" fill-rule="nonzero"/><path fill="#fddf2e" d="M 129.695312 174.332031 C 129.453125 174.332031 129.203125 174.300781 128.953125 174.253906 C 128.578125 174.179688 128.195312 174.058594 127.816406 173.941406 C 127.609375 173.878906 127.402344 173.8125 127.199219 173.753906 C 126.945312 173.683594 126.691406 173.621094 126.449219 173.585938 L 125.507812 171.945312 C 125.644531 171.917969 125.785156 171.902344 125.917969 171.898438 C 125.929688 171.898438 125.945312 171.898438 125.957031 171.898438 C 126.390625 171.898438 126.878906 172.050781 127.394531 172.214844 C 127.953125 172.386719 128.527344 172.566406 129.097656 172.566406 C 129.351562 172.566406 129.601562 172.535156 129.847656 172.445312 C 130.65625 172.160156 131.152344 171.429688 131.628906 170.722656 C 131.941406 170.257812 132.234375 169.816406 132.589844 169.546875 C 132.964844 169.257812 133.484375 169.078125 134.027344 168.890625 C 134.816406 168.617188 135.636719 168.335938 136.085938 167.671875 C 136.542969 166.996094 136.492188 166.132812 136.449219 165.300781 C 136.414062 164.730469 136.382812 164.191406 136.503906 163.75 C 136.625 163.3125 136.921875 162.878906 137.230469 162.417969 C 137.695312 161.738281 138.171875 161.027344 138.121094 160.207031 C 138.074219 159.492188 137.53125 158.757812 137 158.097656 C 136.644531 157.660156 136.277344 157.203125 136.101562 156.746094 C 135.925781 156.289062 135.890625 155.714844 135.859375 155.160156 C 135.824219 154.574219 135.785156 153.964844 135.578125 153.4375 C 135.492188 153.226562 135.386719 153.035156 135.257812 152.871094 C 134.738281 152.214844 133.914062 151.964844 133.121094 151.722656 C 132.589844 151.5625 132.089844 151.410156 131.71875 151.144531 C 131.339844 150.878906 131.011719 150.445312 130.664062 149.984375 C 130.15625 149.3125 129.632812 148.617188 128.878906 148.371094 C 128.675781 148.304688 128.46875 148.273438 128.261719 148.273438 C 127.722656 148.273438 127.175781 148.46875 126.644531 148.660156 C 126.140625 148.84375 125.660156 149.015625 125.210938 149.015625 C 125.210938 149.015625 125.210938 149.015625 125.207031 149.015625 C 124.789062 149.015625 124.3125 148.851562 123.808594 148.675781 C 123.257812 148.480469 122.691406 148.285156 122.144531 148.285156 C 121.929688 148.285156 121.714844 148.316406 121.507812 148.386719 C 120.765625 148.648438 120.324219 149.363281 119.886719 150.058594 C 119.597656 150.511719 119.328125 150.945312 119 151.207031 C 118.648438 151.484375 118.167969 151.652344 117.660156 151.828125 C 116.921875 152.082031 116.160156 152.34375 115.730469 153 C 115.5 153.351562 115.398438 153.761719 115.355469 154.195312 L 114.175781 152.140625 C 114.214844 152.054688 114.261719 151.972656 114.308594 151.898438 C 115.066406 150.734375 116.980469 150.738281 118.058594 149.878906 C 119.097656 149.046875 119.605469 147.078125 120.894531 146.625 C 121.097656 146.554688 121.308594 146.523438 121.523438 146.523438 C 122.105469 146.523438 122.722656 146.738281 123.339844 146.953125 C 123.953125 147.171875 124.5625 147.390625 125.121094 147.390625 C 125.125 147.390625 125.125 147.390625 125.125 147.390625 C 126.046875 147.386719 127.015625 146.847656 127.953125 146.621094 C 128.203125 146.558594 128.453125 146.519531 128.695312 146.519531 C 128.902344 146.519531 129.109375 146.550781 129.3125 146.617188 C 129.316406 146.617188 129.320312 146.617188 129.324219 146.621094 C 130.644531 147.070312 131.378906 149 132.554688 149.828125 C 133.722656 150.648438 135.714844 150.617188 136.640625 151.773438 C 137.53125 152.886719 137.050781 154.828125 137.597656 156.21875 C 138.140625 157.613281 139.875 158.769531 139.96875 160.167969 C 140.03125 161.074219 139.421875 161.898438 138.867188 162.722656 C 138.769531 162.871094 138.671875 163.015625 138.582031 163.164062 C 138.367188 163.511719 138.1875 163.859375 138.089844 164.214844 C 137.710938 165.59375 138.460938 167.53125 137.652344 168.722656 C 136.851562 169.902344 134.765625 169.957031 133.597656 170.851562 C 133.230469 171.132812 132.917969 171.535156 132.621094 171.96875 C 132 172.859375 131.421875 173.871094 130.464844 174.210938 C 130.214844 174.296875 129.957031 174.332031 129.695312 174.332031 " fill-opacity="1" fill-rule="nonzero"/><path fill="#feec6a" d="M 129.101562 171.910156 C 128.632812 171.910156 128.125 171.75 127.59375 171.582031 C 127.050781 171.414062 126.496094 171.238281 125.960938 171.238281 C 125.945312 171.238281 125.925781 171.238281 125.910156 171.238281 C 125.660156 171.242188 125.414062 171.285156 125.164062 171.34375 L 124.703125 170.539062 C 125.082031 170.40625 125.453125 170.292969 125.816406 170.285156 C 125.828125 170.285156 125.839844 170.285156 125.851562 170.285156 C 126.257812 170.285156 126.695312 170.425781 127.140625 170.566406 C 127.585938 170.707031 128.035156 170.847656 128.464844 170.847656 C 128.644531 170.847656 128.820312 170.824219 128.992188 170.761719 C 129.988281 170.410156 130.398438 168.996094 131.1875 168.390625 C 132.003906 167.765625 133.464844 167.730469 134.027344 166.898438 C 134.175781 166.675781 134.25 166.417969 134.285156 166.136719 C 133.914062 166.15625 133.546875 166.164062 133.175781 166.164062 C 130.226562 166.164062 127.320312 165.574219 124.699219 164.125 C 123.527344 163.480469 122.476562 162.742188 121.46875 161.96875 C 120.878906 161.945312 120.289062 161.894531 119.710938 161.808594 L 115.945312 155.226562 C 115.929688 154.511719 115.933594 153.84375 116.234375 153.386719 C 116.550781 152.90625 117.1875 152.683594 117.859375 152.453125 C 118.390625 152.269531 118.945312 152.078125 119.375 151.734375 C 119.785156 151.410156 120.097656 150.914062 120.398438 150.4375 C 120.796875 149.800781 121.171875 149.203125 121.722656 149.007812 C 121.867188 148.957031 122.015625 148.9375 122.175781 148.9375 C 122.621094 148.9375 123.121094 149.113281 123.640625 149.292969 C 124.167969 149.480469 124.71875 149.667969 125.238281 149.667969 C 125.238281 149.667969 125.242188 149.667969 125.246094 149.667969 C 125.792969 149.667969 126.34375 149.46875 126.875 149.277344 C 127.375 149.097656 127.859375 148.921875 128.296875 148.921875 C 128.445312 148.921875 128.585938 148.941406 128.722656 148.988281 C 129.28125 149.167969 129.714844 149.75 130.179688 150.367188 C 130.542969 150.847656 130.917969 151.34375 131.382812 151.671875 C 131.839844 151.996094 132.414062 152.175781 132.976562 152.34375 C 133.699219 152.566406 134.386719 152.769531 134.769531 153.257812 C 135.105469 153.683594 135.171875 154.40625 135.21875 155.167969 C 135.253906 155.773438 135.289062 156.398438 135.503906 156.957031 C 135.71875 157.511719 136.117188 158.011719 136.503906 158.496094 C 136.992188 159.097656 137.4375 159.6875 137.472656 160.21875 C 137.507812 160.828125 137.113281 161.417969 136.6875 162.042969 C 136.359375 162.527344 136.023438 163.023438 135.875 163.558594 C 135.726562 164.105469 135.761719 164.722656 135.792969 165.320312 C 135.835938 166.085938 135.871094 166.804688 135.539062 167.300781 C 135.207031 167.789062 134.527344 168.023438 133.808594 168.273438 C 133.238281 168.46875 132.648438 168.671875 132.1875 169.023438 C 131.75 169.363281 131.410156 169.867188 131.082031 170.355469 C 130.648438 171 130.230469 171.613281 129.636719 171.824219 C 129.464844 171.882812 129.285156 171.910156 129.101562 171.910156 " fill-opacity="1" fill-rule="nonzero"/><path fill="#cbb225" d="M 129.097656 172.566406 C 128.527344 172.566406 127.953125 172.386719 127.394531 172.214844 C 126.878906 172.050781 126.390625 171.898438 125.957031 171.898438 C 125.945312 171.898438 125.929688 171.898438 125.917969 171.898438 C 125.785156 171.902344 125.644531 171.917969 125.507812 171.945312 L 125.335938 171.644531 C 125.53125 171.597656 125.722656 171.570312 125.914062 171.566406 C 125.925781 171.566406 125.945312 171.566406 125.960938 171.566406 C 126.445312 171.566406 126.976562 171.734375 127.511719 171.902344 C 128.042969 172.070312 128.585938 172.238281 129.101562 172.238281 C 129.320312 172.238281 129.535156 172.207031 129.742188 172.132812 C 130.945312 171.710938 131.4375 170.015625 132.390625 169.289062 C 133.371094 168.53125 135.132812 168.488281 135.8125 167.488281 C 136.492188 166.476562 135.871094 164.824219 136.191406 163.65625 C 136.507812 162.496094 137.871094 161.445312 137.792969 160.214844 C 137.71875 159.023438 136.257812 158.035156 135.804688 156.851562 C 135.347656 155.667969 135.765625 154.015625 135.011719 153.066406 C 134.234375 152.082031 132.539062 152.109375 131.550781 151.410156 C 130.550781 150.703125 129.933594 149.050781 128.800781 148.679688 C 128.628906 148.621094 128.457031 148.597656 128.28125 148.597656 C 127.296875 148.597656 126.222656 149.339844 125.226562 149.339844 C 125.226562 149.339844 125.222656 149.339844 125.21875 149.339844 C 124.742188 149.339844 124.226562 149.160156 123.703125 148.976562 C 123.179688 148.792969 122.652344 148.609375 122.15625 148.609375 C 121.972656 148.609375 121.789062 148.636719 121.617188 148.699219 C 120.507812 149.085938 120.074219 150.761719 119.1875 151.46875 C 118.265625 152.203125 116.628906 152.203125 115.980469 153.195312 C 115.710938 153.605469 115.644531 154.128906 115.636719 154.6875 L 115.355469 154.195312 C 115.398438 153.761719 115.5 153.351562 115.730469 153 C 116.160156 152.34375 116.921875 152.082031 117.660156 151.828125 C 118.167969 151.652344 118.648438 151.484375 119 151.207031 C 119.328125 150.945312 119.597656 150.511719 119.886719 150.058594 C 120.324219 149.363281 120.765625 148.648438 121.507812 148.386719 C 121.714844 148.316406 121.929688 148.285156 122.144531 148.285156 C 122.691406 148.285156 123.257812 148.480469 123.808594 148.675781 C 124.3125 148.851562 124.789062 149.015625 125.207031 149.015625 C 125.210938 149.015625 125.210938 149.015625 125.210938 149.015625 C 125.660156 149.015625 126.140625 148.84375 126.644531 148.660156 C 127.175781 148.46875 127.722656 148.273438 128.261719 148.273438 C 128.46875 148.273438 128.675781 148.304688 128.878906 148.371094 C 129.632812 148.617188 130.15625 149.3125 130.664062 149.984375 C 131.011719 150.445312 131.339844 150.878906 131.71875 151.144531 C 132.089844 151.410156 132.589844 151.5625 133.121094 151.722656 C 133.914062 151.964844 134.738281 152.214844 135.257812 152.871094 C 135.386719 153.035156 135.492188 153.226562 135.578125 153.4375 C 135.785156 153.964844 135.824219 154.574219 135.859375 155.160156 C 135.890625 155.714844 135.925781 156.289062 136.101562 156.746094 C 136.277344 157.203125 136.644531 157.660156 137 158.097656 C 137.53125 158.757812 138.074219 159.492188 138.121094 160.207031 C 138.171875 161.027344 137.695312 161.738281 137.230469 162.417969 C 136.921875 162.878906 136.625 163.3125 136.503906 163.75 C 136.382812 164.191406 136.414062 164.730469 136.449219 165.300781 C 136.492188 166.132812 136.542969 166.996094 136.085938 167.671875 C 135.636719 168.335938 134.816406 168.617188 134.027344 168.890625 C 133.484375 169.078125 132.964844 169.257812 132.589844 169.546875 C 132.234375 169.816406 131.941406 170.257812 131.628906 170.722656 C 131.152344 171.429688 130.65625 172.160156 129.847656 172.445312 C 129.601562 172.535156 129.351562 172.566406 129.097656 172.566406 " fill-opacity="1" fill-rule="nonzero"/><path fill="#ccbd55" d="M 129.101562 172.238281 C 128.585938 172.238281 128.042969 172.070312 127.511719 171.902344 C 126.976562 171.734375 126.445312 171.566406 125.960938 171.566406 C 125.945312 171.566406 125.925781 171.566406 125.914062 171.566406 C 125.722656 171.570312 125.53125 171.597656 125.335938 171.644531 L 125.164062 171.34375 C 125.414062 171.285156 125.660156 171.242188 125.910156 171.238281 C 125.925781 171.238281 125.945312 171.238281 125.960938 171.238281 C 126.496094 171.238281 127.050781 171.414062 127.59375 171.582031 C 128.125 171.75 128.632812 171.910156 129.101562 171.910156 C 129.285156 171.910156 129.464844 171.882812 129.636719 171.824219 C 130.230469 171.613281 130.648438 171 131.082031 170.355469 C 131.410156 169.867188 131.75 169.363281 132.1875 169.023438 C 132.648438 168.671875 133.238281 168.46875 133.808594 168.273438 C 134.527344 168.023438 135.207031 167.789062 135.539062 167.300781 C 135.871094 166.804688 135.835938 166.085938 135.792969 165.320312 C 135.761719 164.722656 135.726562 164.105469 135.875 163.558594 C 136.023438 163.023438 136.359375 162.527344 136.6875 162.042969 C 137.113281 161.417969 137.507812 160.828125 137.472656 160.21875 C 137.4375 159.6875 136.992188 159.097656 136.503906 158.496094 C 136.117188 158.011719 135.71875 157.511719 135.503906 156.957031 C 135.289062 156.398438 135.253906 155.773438 135.21875 155.167969 C 135.171875 154.40625 135.105469 153.683594 134.769531 153.257812 C 134.386719 152.769531 133.699219 152.566406 132.976562 152.34375 C 132.414062 152.175781 131.839844 151.996094 131.382812 151.671875 C 130.917969 151.34375 130.542969 150.847656 130.179688 150.367188 C 129.714844 149.75 129.28125 149.167969 128.722656 148.988281 C 128.585938 148.941406 128.445312 148.921875 128.296875 148.921875 C 127.859375 148.921875 127.375 149.097656 126.875 149.277344 C 126.34375 149.46875 125.792969 149.667969 125.246094 149.667969 C 125.242188 149.667969 125.238281 149.667969 125.238281 149.667969 C 124.71875 149.667969 124.167969 149.480469 123.640625 149.292969 C 123.121094 149.113281 122.621094 148.9375 122.175781 148.9375 C 122.015625 148.9375 121.867188 148.957031 121.722656 149.007812 C 121.171875 149.203125 120.796875 149.800781 120.398438 150.4375 C 120.097656 150.914062 119.785156 151.410156 119.375 151.734375 C 118.945312 152.078125 118.390625 152.269531 117.859375 152.453125 C 117.1875 152.683594 116.550781 152.90625 116.234375 153.386719 C 115.933594 153.84375 115.929688 154.511719 115.945312 155.226562 L 115.636719 154.6875 C 115.644531 154.128906 115.710938 153.605469 115.980469 153.195312 C 116.628906 152.203125 118.265625 152.203125 119.1875 151.46875 C 120.074219 150.761719 120.507812 149.085938 121.617188 148.699219 C 121.789062 148.636719 121.972656 148.609375 122.15625 148.609375 C 122.652344 148.609375 123.179688 148.792969 123.703125 148.976562 C 124.226562 149.160156 124.742188 149.339844 125.21875 149.339844 C 125.222656 149.339844 125.226562 149.339844 125.226562 149.339844 C 126.222656 149.339844 127.296875 148.597656 128.28125 148.597656 C 128.457031 148.597656 128.628906 148.621094 128.800781 148.679688 C 129.933594 149.050781 130.550781 150.703125 131.550781 151.410156 C 132.539062 152.109375 134.234375 152.082031 135.011719 153.066406 C 135.765625 154.015625 135.347656 155.667969 135.804688 156.851562 C 136.257812 158.035156 137.71875 159.023438 137.792969 160.214844 C 137.871094 161.445312 136.507812 162.496094 136.191406 163.65625 C 135.871094 164.824219 136.492188 166.476562 135.8125 167.488281 C 135.132812 168.488281 133.371094 168.53125 132.390625 169.289062 C 131.4375 170.015625 130.945312 171.710938 129.742188 172.132812 C 129.535156 172.207031 129.320312 172.238281 129.101562 172.238281 " fill-opacity="1" fill-rule="nonzero"/><path fill="#fef4a3" d="M 128.464844 170.847656 C 128.035156 170.847656 127.585938 170.707031 127.140625 170.566406 C 126.695312 170.425781 126.257812 170.285156 125.851562 170.285156 C 125.839844 170.285156 125.828125 170.285156 125.816406 170.285156 C 125.453125 170.292969 125.082031 170.40625 124.703125 170.539062 L 119.710938 161.808594 C 120.289062 161.894531 120.878906 161.945312 121.46875 161.96875 C 122.476562 162.742188 123.527344 163.480469 124.699219 164.125 C 127.320312 165.574219 130.226562 166.164062 133.175781 166.164062 C 133.546875 166.164062 133.914062 166.15625 134.285156 166.136719 C 134.25 166.417969 134.175781 166.675781 134.027344 166.898438 C 133.464844 167.730469 132.003906 167.765625 131.1875 168.390625 C 130.398438 168.996094 129.988281 170.410156 128.992188 170.761719 C 128.820312 170.824219 128.644531 170.847656 128.464844 170.847656 " fill-opacity="1" fill-rule="nonzero"/><path fill="#f1f2f1" d="M 148.589844 212.292969 L 147.675781 210.691406 C 148.347656 210.035156 149.066406 209.460938 149.851562 209.035156 C 149.515625 210.152344 149.054688 211.222656 148.589844 212.292969 M 165.265625 208.289062 C 163.660156 208.289062 162.054688 208.191406 160.457031 207.976562 C 159.976562 207.910156 158.371094 207.308594 157.597656 207.308594 C 157.453125 207.308594 157.335938 207.328125 157.265625 207.382812 C 157.972656 206.894531 158.863281 206.621094 159.679688 206.371094 C 161.308594 205.867188 163.035156 205.660156 164.738281 205.660156 C 164.9375 205.660156 165.132812 205.660156 165.328125 205.667969 C 165.859375 205.683594 170.605469 206.578125 169.496094 207.78125 C 169.398438 207.882812 169.300781 207.992188 169.199219 208.105469 C 167.886719 208.222656 166.578125 208.289062 165.265625 208.289062 " fill-opacity="1" fill-rule="nonzero"/><path fill="#f1f2f1" d="M 198.726562 222.183594 L 198.269531 221.386719 L 199.6875 221.386719 C 199.371094 221.65625 199.050781 221.917969 198.726562 222.183594 M 202.910156 218.566406 L 196.660156 218.566406 L 196.199219 217.761719 C 196.238281 217.734375 196.28125 217.707031 196.320312 217.679688 C 197.027344 217.917969 197.839844 218.019531 198.691406 218.019531 C 200.210938 218.019531 201.851562 217.695312 203.265625 217.242188 C 203.628906 217.132812 203.980469 217.003906 204.324219 216.855469 C 204.609375 216.742188 204.878906 216.621094 205.128906 216.496094 C 204.402344 217.191406 203.664062 217.882812 202.910156 218.566406 M 199.476562 217.484375 C 198.703125 217.484375 197.953125 217.359375 197.265625 217.0625 C 201.367188 214.210938 203.714844 210.363281 204.8125 205.167969 C 204.84375 205.023438 204.710938 204.921875 204.59375 204.878906 C 203.964844 204.648438 203.328125 204.542969 202.695312 204.542969 C 198.414062 204.542969 194.34375 209.429688 193.859375 213.328125 C 193.847656 213.425781 193.835938 213.527344 193.828125 213.621094 L 185.015625 198.214844 L 210.765625 198.214844 L 215.144531 205.867188 C 214.570312 206.527344 213.992188 207.1875 213.410156 207.847656 C 213.164062 207.921875 212.929688 208.179688 212.953125 208.359375 C 211.171875 210.347656 209.335938 212.320312 207.40625 214.261719 C 206.707031 214.695312 206.027344 215.152344 205.320312 215.558594 C 204.113281 215.800781 203.167969 216.1875 202.089844 216.820312 C 201.90625 216.925781 201.824219 217.042969 201.816406 217.148438 C 201.042969 217.359375 200.246094 217.484375 199.476562 217.484375 M 196.558594 216.675781 C 196.246094 216.46875 195.953125 216.214844 195.6875 215.914062 C 193.402344 213.339844 196.140625 209.429688 197.996094 207.558594 C 199.164062 206.378906 200.699219 205.472656 202.355469 205.265625 C 202.449219 205.253906 202.542969 205.25 202.625 205.25 C 204.695312 205.25 202.832031 208.839844 202.355469 209.992188 C 201.167969 212.867188 199.066406 215.011719 196.558594 216.675781 M 207.742188 192.933594 L 181.992188 192.933594 L 175.285156 181.214844 L 201.035156 181.214844 L 207.742188 192.933594 M 198.015625 175.929688 L 172.265625 175.929688 L 167.730469 168.007812 L 193.480469 168.007812 L 198.015625 175.929688 M 190.460938 162.722656 L 164.707031 162.722656 L 158.316406 151.554688 L 184.070312 151.554688 L 190.460938 162.722656 M 182.453125 148.734375 L 156.703125 148.734375 L 155.492188 146.621094 L 181.246094 146.621094 L 182.453125 148.734375 M 179.632812 143.800781 L 153.882812 143.800781 L 151.304688 139.296875 L 177.054688 139.296875 L 179.632812 143.800781 " fill-opacity="1" fill-rule="nonzero"/><path fill="#ececeb" d="M 227.3125 227.136719 L 201.5625 227.136719 L 198.726562 222.183594 C 199.050781 221.917969 199.371094 221.65625 199.6875 221.386719 L 224.019531 221.386719 L 227.3125 227.136719 M 222.410156 218.566406 L 202.910156 218.566406 C 203.664062 217.882812 204.402344 217.191406 205.128906 216.496094 C 205.402344 216.363281 205.648438 216.226562 205.867188 216.089844 C 205.921875 216.054688 205.964844 216.019531 205.992188 215.988281 C 206.769531 215.527344 207.523438 215.023438 208.316406 214.550781 C 208.507812 215.539062 208.859375 216.484375 208.980469 217.492188 C 208.996094 217.660156 209.148438 217.71875 209.320312 217.71875 C 209.515625 217.71875 209.738281 217.644531 209.828125 217.574219 C 210.761719 216.859375 211.636719 216.136719 212.429688 215.289062 C 212.53125 215.390625 212.632812 215.492188 212.734375 215.59375 C 212.835938 215.695312 212.964844 215.734375 213.101562 215.734375 C 213.257812 215.734375 213.417969 215.679688 213.542969 215.59375 C 214.816406 214.707031 215.9375 213.777344 216.921875 212.636719 C 217.324219 214.0625 217.457031 215.507812 217.644531 216.996094 C 217.664062 217.164062 217.820312 217.222656 217.996094 217.222656 C 218.1875 217.222656 218.40625 217.152344 218.496094 217.078125 C 219.21875 216.496094 219.875 215.882812 220.492188 215.21875 L 222.410156 218.566406 M 209.894531 216.550781 C 209.703125 215.609375 209.378906 214.707031 209.265625 213.75 C 209.242188 213.578125 209.066406 213.523438 208.886719 213.523438 C 208.742188 213.523438 208.601562 213.558594 208.527344 213.597656 C 208.144531 213.808594 207.773438 214.03125 207.40625 214.261719 C 209.335938 212.320312 211.171875 210.347656 212.953125 208.359375 C 212.960938 208.460938 213.054688 208.542969 213.273438 208.546875 C 214.417969 208.578125 215.570312 208.601562 216.71875 208.617188 L 220.0625 214.464844 C 219.589844 215.011719 219.113281 215.503906 218.582031 215.984375 C 218.398438 214.460938 218.210938 212.984375 217.683594 211.515625 C 217.621094 211.351562 217.457031 211.285156 217.277344 211.285156 C 217.070312 211.285156 216.839844 211.378906 216.742188 211.515625 C 215.777344 212.820312 214.632812 213.867188 213.34375 214.8125 C 213.207031 214.679688 213.070312 214.542969 212.933594 214.40625 C 212.835938 214.308594 212.699219 214.265625 212.554688 214.265625 C 212.359375 214.265625 212.15625 214.347656 212.035156 214.488281 C 211.386719 215.257812 210.664062 215.921875 209.894531 216.550781 M 213.410156 207.847656 C 213.992188 207.1875 214.570312 206.527344 215.144531 205.867188 L 216.054688 207.460938 C 215.070312 207.609375 214.183594 207.757812 213.503906 207.824219 C 213.472656 207.828125 213.441406 207.835938 213.410156 207.847656 " fill-opacity="1" fill-rule="nonzero"/><path fill="#d4d5d2" d="M 181.246094 146.621094 L 155.492188 146.621094 L 153.882812 143.800781 L 179.632812 143.800781 L 181.246094 146.621094 " fill-opacity="1" fill-rule="nonzero"/><path fill="#d4d5d2" d="M 184.070312 151.554688 L 158.316406 151.554688 L 156.703125 148.734375 L 182.453125 148.734375 L 184.070312 151.554688 " fill-opacity="1" fill-rule="nonzero"/><path fill="#d4d5d2" d="M 193.480469 168.007812 L 167.730469 168.007812 L 164.707031 162.722656 L 190.460938 162.722656 L 193.480469 168.007812 " fill-opacity="1" fill-rule="nonzero"/><path fill="#d4d5d2" d="M 201.035156 181.214844 L 175.285156 181.214844 L 172.265625 175.929688 L 198.015625 175.929688 L 201.035156 181.214844 " fill-opacity="1" fill-rule="nonzero"/><path fill="#d4d5d2" d="M 210.765625 198.214844 L 185.015625 198.214844 L 181.992188 192.933594 L 207.742188 192.933594 L 210.765625 198.214844 " fill-opacity="1" fill-rule="nonzero"/><path fill="#d4d5d2" d="M 199.6875 221.386719 L 198.269531 221.386719 L 196.660156 218.566406 L 202.910156 218.566406 C 201.867188 219.515625 200.792969 220.457031 199.6875 221.386719 " fill-opacity="1" fill-rule="nonzero"/><path fill="#cfcfcd" d="M 224.019531 221.386719 L 199.6875 221.386719 C 200.792969 220.457031 201.867188 219.515625 202.910156 218.566406 L 222.410156 218.566406 L 224.019531 221.386719 " fill-opacity="1" fill-rule="nonzero"/><path fill="#817772" d="M 147.179688 217.640625 C 147.023438 217.640625 146.824219 217.597656 146.851562 217.421875 C 147.140625 215.601562 147.871094 213.949219 148.589844 212.292969 L 149.089844 213.160156 C 148.746094 213.953125 148.433594 214.757812 148.226562 215.597656 C 148.058594 216.257812 148.15625 216.5 148.386719 216.5 C 148.816406 216.5 149.714844 215.65625 150.226562 215.148438 L 150.601562 215.800781 C 149.648438 216.695312 148.609375 217.445312 147.292969 217.632812 C 147.261719 217.636719 147.222656 217.640625 147.179688 217.640625 M 142.417969 216.589844 C 142.1875 216.589844 142.027344 216.519531 142.164062 216.355469 C 143.765625 214.425781 145.339844 211.910156 147.339844 210.105469 L 147.675781 210.691406 C 145.945312 212.394531 144.535156 214.664062 143.117188 216.371094 C 143.007812 216.503906 142.671875 216.589844 142.417969 216.589844 M 180.933594 207.238281 L 180.636719 206.71875 C 181.761719 206.597656 182.886719 206.492188 184.011719 206.421875 C 184.039062 206.417969 184.066406 206.417969 184.089844 206.417969 C 184.695312 206.417969 184.351562 206.945312 183.867188 206.980469 C 182.890625 207.042969 181.914062 207.132812 180.933594 207.238281 " fill-opacity="1" fill-rule="nonzero"/><path fill="#887e79" d="M 155.484375 216.664062 C 155.355469 216.664062 155.261719 216.621094 155.25 216.5 C 155.199219 215.769531 155.0625 215.050781 154.964844 214.324219 C 154.902344 214.371094 154.839844 214.417969 154.777344 214.460938 C 154.691406 214.546875 154.359375 214.671875 154.113281 214.671875 C 153.949219 214.671875 153.828125 214.613281 153.851562 214.449219 C 153.855469 214.410156 153.863281 214.378906 153.867188 214.34375 C 153.3125 214.8125 152.746094 215.265625 152.152344 215.699219 C 152.085938 215.75 151.679688 215.886719 151.425781 215.886719 C 151.269531 215.886719 151.167969 215.835938 151.226562 215.6875 C 151.339844 215.40625 151.441406 215.125 151.546875 214.847656 C 151.238281 215.171875 150.925781 215.496094 150.601562 215.800781 L 150.226562 215.148438 C 150.335938 215.035156 150.429688 214.941406 150.496094 214.875 C 151.105469 214.25 151.714844 213.628906 152.378906 213.0625 C 152.46875 212.984375 152.8125 212.882812 153.054688 212.882812 C 153.25 212.882812 153.382812 212.949219 153.269531 213.152344 C 153.019531 213.59375 152.828125 214.050781 152.652344 214.511719 C 153.214844 214.046875 153.761719 213.5625 154.304688 213.0625 C 154.375 212.996094 154.753906 212.882812 155.011719 212.882812 C 155.179688 212.882812 155.292969 212.929688 155.230469 213.074219 C 155.164062 213.21875 155.109375 213.359375 155.0625 213.503906 C 155.113281 213.476562 155.164062 213.453125 155.214844 213.433594 C 155.28125 213.402344 155.484375 213.347656 155.660156 213.347656 C 155.800781 213.347656 155.917969 213.382812 155.929688 213.5 C 155.996094 214.230469 156.136719 214.945312 156.226562 215.667969 C 156.597656 215.410156 156.957031 215.140625 157.28125 214.796875 C 157.40625 214.660156 157.640625 214.585938 157.851562 214.585938 C 157.941406 214.585938 158.027344 214.601562 158.101562 214.628906 C 158.617188 214.839844 159.140625 214.933594 159.667969 214.933594 C 162.980469 214.933594 166.394531 211.210938 168.664062 208.695312 C 167.394531 208.792969 166.128906 208.851562 164.863281 208.851562 C 162 208.851562 159.148438 208.550781 156.324219 207.71875 C 156.035156 207.632812 156.117188 207.4375 156.324219 207.296875 C 158.183594 206.015625 161.761719 204.875 164.980469 204.875 C 167.40625 204.875 169.632812 205.523438 170.769531 207.246094 C 170.84375 207.359375 170.785156 207.433594 170.703125 207.527344 C 170.554688 207.683594 170.410156 207.839844 170.265625 208 C 173.730469 207.640625 177.175781 207.09375 180.636719 206.71875 L 180.933594 207.238281 C 177.203125 207.636719 173.445312 208.265625 169.699219 208.609375 C 167.527344 210.9375 165.242188 213.210938 162.402344 214.695312 C 161.546875 215.140625 160.40625 215.5625 159.382812 215.5625 C 159.277344 215.5625 159.167969 215.558594 159.066406 215.546875 C 158.675781 215.507812 158.386719 215.484375 158.144531 215.484375 C 157.464844 215.484375 157.179688 215.691406 156.175781 216.445312 C 156.097656 216.503906 155.730469 216.664062 155.484375 216.664062 M 157.597656 207.308594 C 158.371094 207.308594 159.976562 207.910156 160.457031 207.976562 C 162.054688 208.191406 163.660156 208.289062 165.265625 208.289062 C 166.578125 208.289062 167.886719 208.222656 169.199219 208.105469 C 169.300781 207.992188 169.398438 207.882812 169.496094 207.78125 C 170.605469 206.578125 165.859375 205.683594 165.328125 205.667969 C 165.132812 205.660156 164.9375 205.660156 164.738281 205.660156 C 163.035156 205.660156 161.308594 205.867188 159.679688 206.371094 C 158.863281 206.621094 157.972656 206.894531 157.265625 207.382812 C 157.335938 207.328125 157.453125 207.308594 157.597656 207.308594 M 149.089844 213.160156 L 148.589844 212.292969 C 149.054688 211.222656 149.515625 210.152344 149.851562 209.035156 C 149.066406 209.460938 148.347656 210.035156 147.675781 210.691406 L 147.339844 210.105469 C 148.234375 209.300781 149.210938 208.636719 150.3125 208.230469 C 150.375 208.207031 150.582031 208.152344 150.757812 208.152344 C 150.929688 208.152344 151.074219 208.203125 151.027344 208.367188 C 150.59375 210.046875 149.773438 211.582031 149.089844 213.160156 " fill-opacity="1" fill-rule="nonzero"/><path fill="#817772" d="M 194.8125 218.460938 C 194.425781 218.460938 194.164062 218.078125 194.660156 217.808594 C 194.949219 217.65625 195.234375 217.496094 195.515625 217.328125 C 194.371094 216.675781 193.671875 215.511719 193.828125 213.621094 L 196.199219 217.761719 C 195.847656 217.976562 195.480469 218.183594 195.109375 218.386719 C 195.007812 218.4375 194.90625 218.460938 194.8125 218.460938 " fill-opacity="1" fill-rule="nonzero"/><path fill="#7d736e" d="M 220.492188 215.21875 L 220.0625 214.464844 C 220.191406 214.3125 220.324219 214.15625 220.453125 213.992188 C 220.574219 213.847656 220.773438 213.769531 220.972656 213.769531 C 221.082031 213.769531 221.191406 213.796875 221.28125 213.847656 C 221.484375 213.957031 221.6875 214.007812 221.890625 214.007812 C 223.507812 214.007812 225.039062 210.820312 224.578125 209.5625 C 224.429688 209.167969 224.179688 208.871094 223.863281 208.648438 C 223.167969 208.652344 222.472656 208.652344 221.777344 208.652344 C 220.089844 208.652344 218.402344 208.644531 216.71875 208.617188 L 216.054688 207.460938 C 217.453125 207.246094 219.054688 207.023438 220.554688 207.023438 C 222.074219 207.023438 223.492188 207.25 224.5 207.925781 C 229.089844 207.902344 233.675781 207.832031 238.261719 207.824219 C 238.261719 207.824219 238.265625 207.824219 238.265625 207.824219 C 238.964844 207.824219 238.738281 208.546875 238.164062 208.546875 C 233.867188 208.554688 229.574219 208.613281 225.277344 208.640625 C 225.332031 208.714844 225.386719 208.789062 225.441406 208.867188 C 226.792969 210.96875 224.070312 214.707031 221.589844 214.707031 C 221.394531 214.707031 221.203125 214.683594 221.011719 214.632812 C 220.839844 214.832031 220.667969 215.027344 220.492188 215.21875 " fill-opacity="1" fill-rule="nonzero"/><path fill="#887e79" d="M 198.691406 218.019531 C 197.839844 218.019531 197.027344 217.917969 196.320312 217.679688 C 196.28125 217.707031 196.238281 217.734375 196.199219 217.761719 L 193.828125 213.621094 C 193.835938 213.527344 193.847656 213.425781 193.859375 213.328125 C 194.34375 209.429688 198.414062 204.542969 202.695312 204.542969 C 203.328125 204.542969 203.964844 204.648438 204.59375 204.878906 C 204.710938 204.921875 204.84375 205.023438 204.8125 205.167969 C 203.714844 210.363281 201.367188 214.210938 197.265625 217.0625 C 197.953125 217.359375 198.703125 217.484375 199.476562 217.484375 C 200.246094 217.484375 201.042969 217.359375 201.816406 217.148438 C 201.824219 217.042969 201.90625 216.925781 202.089844 216.820312 C 203.167969 216.1875 204.113281 215.800781 205.320312 215.558594 C 206.027344 215.152344 206.707031 214.695312 207.40625 214.261719 C 206.664062 215.011719 205.902344 215.757812 205.128906 216.496094 C 204.878906 216.621094 204.609375 216.742188 204.324219 216.855469 C 203.980469 217.003906 203.628906 217.132812 203.265625 217.242188 C 201.851562 217.695312 200.210938 218.019531 198.691406 218.019531 M 202.625 205.25 C 202.542969 205.25 202.449219 205.253906 202.355469 205.265625 C 200.699219 205.472656 199.164062 206.378906 197.996094 207.558594 C 196.140625 209.429688 193.402344 213.339844 195.6875 215.914062 C 195.953125 216.214844 196.246094 216.46875 196.558594 216.675781 C 199.066406 215.011719 201.167969 212.867188 202.355469 209.992188 C 202.832031 208.839844 204.695312 205.25 202.625 205.25 M 212.953125 208.359375 C 212.929688 208.179688 213.164062 207.921875 213.410156 207.847656 C 213.257812 208.015625 213.101562 208.191406 212.953125 208.359375 " fill-opacity="1" fill-rule="nonzero"/><path fill="#867b76" d="M 209.320312 217.71875 C 209.148438 217.71875 208.996094 217.660156 208.980469 217.492188 C 208.859375 216.484375 208.507812 215.539062 208.316406 214.550781 C 207.523438 215.023438 206.769531 215.527344 205.992188 215.988281 C 205.964844 216.019531 205.921875 216.054688 205.867188 216.089844 C 205.648438 216.226562 205.402344 216.363281 205.128906 216.496094 C 205.902344 215.757812 206.664062 215.011719 207.40625 214.261719 C 207.773438 214.03125 208.144531 213.808594 208.527344 213.597656 C 208.601562 213.558594 208.742188 213.523438 208.886719 213.523438 C 209.066406 213.523438 209.242188 213.578125 209.265625 213.75 C 209.378906 214.707031 209.703125 215.609375 209.894531 216.550781 C 210.664062 215.921875 211.386719 215.257812 212.035156 214.488281 C 212.15625 214.347656 212.359375 214.265625 212.554688 214.265625 C 212.699219 214.265625 212.835938 214.308594 212.933594 214.40625 C 213.070312 214.542969 213.207031 214.679688 213.34375 214.8125 C 214.632812 213.867188 215.777344 212.820312 216.742188 211.515625 C 216.839844 211.378906 217.070312 211.285156 217.277344 211.285156 C 217.457031 211.285156 217.621094 211.351562 217.683594 211.515625 C 218.210938 212.984375 218.398438 214.460938 218.582031 215.984375 C 219.113281 215.503906 219.589844 215.011719 220.0625 214.464844 L 220.492188 215.21875 C 219.875 215.882812 219.21875 216.496094 218.496094 217.078125 C 218.40625 217.152344 218.1875 217.222656 217.996094 217.222656 C 217.820312 217.222656 217.664062 217.164062 217.644531 216.996094 C 217.457031 215.507812 217.324219 214.0625 216.921875 212.636719 C 215.9375 213.777344 214.816406 214.707031 213.542969 215.59375 C 213.417969 215.679688 213.257812 215.734375 213.101562 215.734375 C 212.964844 215.734375 212.835938 215.695312 212.734375 215.59375 C 212.632812 215.492188 212.53125 215.390625 212.429688 215.289062 C 211.636719 216.136719 210.761719 216.859375 209.828125 217.574219 C 209.738281 217.644531 209.515625 217.71875 209.320312 217.71875 M 216.71875 208.617188 C 215.570312 208.601562 214.417969 208.578125 213.273438 208.546875 C 213.054688 208.542969 212.960938 208.460938 212.953125 208.359375 C 213.101562 208.191406 213.257812 208.015625 213.410156 207.847656 C 213.441406 207.835938 213.472656 207.828125 213.503906 207.824219 C 214.183594 207.757812 215.070312 207.609375 216.054688 207.460938 L 216.71875 208.617188 " fill-opacity="1" fill-rule="nonzero"/></svg>