<svg xmlns="http://www.w3.org/2000/svg" xmlns:xlink="http://www.w3.org/1999/xlink" width="500" zoomAndPan="magnify" viewBox="0 0 375 374.999991" height="500" preserveAspectRatio="xMidYMid meet" version="1.0"><defs><clipPath id="debb92aed7"><path d="M 99 237 L 118 237 L 118 278.742188 L 99 278.742188 Z M 99 237 " clip-rule="nonzero"/></clipPath><clipPath id="895c744ada"><path d="M 131 230 L 150 230 L 150 278.742188 L 131 278.742188 Z M 131 230 " clip-rule="nonzero"/></clipPath><clipPath id="77cc0d4f23"><path d="M 164 215 L 182 215 L 182 278.742188 L 164 278.742188 Z M 164 215 " clip-rule="nonzero"/></clipPath><clipPath id="8ccd312d93"><path d="M 196 190 L 215 190 L 215 278.742188 L 196 278.742188 Z M 196 190 " clip-rule="nonzero"/></clipPath><clipPath id="de3d23a447"><path d="M 96.492188 131 L 215 131 L 215 229 L 96.492188 229 Z M 96.492188 131 " clip-rule="nonzero"/></clipPath><clipPath id="e75bb0576d"><path d="M 225 96.492188 L 278.742188 96.492188 L 278.742188 150 L 225 150 Z M 225 96.492188 " clip-rule="nonzero"/></clipPath></defs><path fill="#ffaf04" d="M 246.414062 199.378906 L 246.414062 206.609375 C 243.621094 205.726562 240.679688 205.257812 237.59375 205.257812 C 234.507812 205.257812 231.566406 205.726562 228.777344 206.609375 L 228.777344 199.378906 C 228.777344 197.761719 230.097656 196.4375 231.714844 196.4375 L 243.472656 196.4375 C 245.089844 196.4375 246.414062 197.761719 246.414062 199.378906 Z M 246.414062 199.378906 " fill-opacity="1" fill-rule="nonzero"/><path fill="#6871d8" d="M 246.414062 206.609375 C 258.347656 210.371094 266.988281 221.511719 266.988281 234.652344 C 266.988281 250.878906 253.820312 264.046875 237.59375 264.046875 C 227.980469 264.046875 219.429688 259.402344 214.078125 252.257812 C 210.375 247.351562 208.199219 241.265625 208.199219 234.652344 C 208.199219 228.039062 210.375 221.953125 214.078125 217.042969 C 217.722656 212.164062 222.835938 208.460938 228.777344 206.609375 C 231.566406 205.726562 234.507812 205.257812 237.59375 205.257812 C 240.679688 205.257812 243.621094 205.726562 246.414062 206.609375 Z M 246.414062 206.609375 " fill-opacity="1" fill-rule="nonzero"/><path fill="#d9d8ef" d="M 258.171875 234.652344 C 258.171875 235.324219 258.136719 235.996094 258.070312 236.667969 C 258.003906 237.339844 257.90625 238.003906 257.773438 238.664062 C 257.644531 239.328125 257.480469 239.980469 257.285156 240.625 C 257.089844 241.269531 256.863281 241.902344 256.605469 242.527344 C 256.347656 243.148438 256.058594 243.757812 255.742188 244.351562 C 255.421875 244.945312 255.078125 245.523438 254.703125 246.082031 C 254.328125 246.644531 253.925781 247.183594 253.5 247.703125 C 253.074219 248.226562 252.621094 248.722656 252.144531 249.199219 C 251.667969 249.675781 251.167969 250.128906 250.648438 250.558594 C 250.125 250.984375 249.585938 251.386719 249.027344 251.761719 C 248.464844 252.132812 247.886719 252.480469 247.292969 252.796875 C 246.699219 253.117188 246.089844 253.402344 245.46875 253.660156 C 244.84375 253.917969 244.210938 254.144531 243.566406 254.339844 C 242.921875 254.539062 242.269531 254.699219 241.609375 254.832031 C 240.949219 254.964844 240.28125 255.0625 239.609375 255.128906 C 238.941406 255.195312 238.269531 255.226562 237.59375 255.226562 C 236.921875 255.226562 236.246094 255.195312 235.578125 255.128906 C 234.90625 255.0625 234.242188 254.964844 233.578125 254.832031 C 232.917969 254.699219 232.265625 254.539062 231.621094 254.339844 C 230.976562 254.144531 230.34375 253.917969 229.71875 253.660156 C 229.097656 253.402344 228.488281 253.117188 227.894531 252.796875 C 227.300781 252.480469 226.722656 252.132812 226.164062 251.761719 C 225.601562 251.386719 225.0625 250.984375 224.539062 250.558594 C 224.019531 250.128906 223.519531 249.675781 223.042969 249.199219 C 222.566406 248.722656 222.117188 248.226562 221.6875 247.703125 C 221.261719 247.183594 220.859375 246.644531 220.484375 246.082031 C 220.109375 245.523438 219.765625 244.945312 219.445312 244.351562 C 219.128906 243.757812 218.839844 243.148438 218.582031 242.527344 C 218.324219 241.902344 218.097656 241.269531 217.902344 240.625 C 217.707031 239.980469 217.542969 239.328125 217.414062 238.664062 C 217.28125 238.003906 217.183594 237.339844 217.117188 236.667969 C 217.050781 235.996094 217.015625 235.324219 217.015625 234.652344 C 217.015625 233.976562 217.050781 233.304688 217.117188 232.632812 C 217.183594 231.964844 217.28125 231.296875 217.414062 230.636719 C 217.542969 229.976562 217.707031 229.324219 217.902344 228.679688 C 218.097656 228.03125 218.324219 227.398438 218.582031 226.777344 C 218.839844 226.152344 219.128906 225.546875 219.445312 224.953125 C 219.765625 224.355469 220.109375 223.78125 220.484375 223.21875 C 220.859375 222.660156 221.261719 222.117188 221.6875 221.597656 C 222.117188 221.078125 222.566406 220.578125 223.042969 220.101562 C 223.519531 219.625 224.019531 219.171875 224.539062 218.746094 C 225.0625 218.316406 225.601562 217.917969 226.164062 217.542969 C 226.722656 217.167969 227.300781 216.820312 227.894531 216.503906 C 228.488281 216.1875 229.097656 215.898438 229.71875 215.640625 C 230.34375 215.382812 230.976562 215.15625 231.621094 214.960938 C 232.265625 214.765625 232.917969 214.601562 233.578125 214.46875 C 234.242188 214.339844 234.90625 214.238281 235.578125 214.171875 C 236.246094 214.109375 236.921875 214.074219 237.59375 214.074219 C 238.269531 214.074219 238.941406 214.109375 239.609375 214.171875 C 240.28125 214.238281 240.949219 214.339844 241.609375 214.46875 C 242.269531 214.601562 242.921875 214.765625 243.566406 214.960938 C 244.210938 215.15625 244.84375 215.382812 245.46875 215.640625 C 246.089844 215.898438 246.699219 216.1875 247.292969 216.503906 C 247.886719 216.820312 248.464844 217.167969 249.027344 217.542969 C 249.585938 217.917969 250.125 218.316406 250.648438 218.746094 C 251.167969 219.171875 251.667969 219.625 252.144531 220.101562 C 252.621094 220.578125 253.074219 221.078125 253.5 221.597656 C 253.925781 222.117188 254.328125 222.660156 254.703125 223.21875 C 255.078125 223.78125 255.421875 224.355469 255.742188 224.953125 C 256.058594 225.546875 256.347656 226.152344 256.605469 226.777344 C 256.863281 227.398438 257.089844 228.03125 257.285156 228.679688 C 257.480469 229.324219 257.644531 229.976562 257.773438 230.636719 C 257.90625 231.296875 258.003906 231.964844 258.070312 232.632812 C 258.136719 233.304688 258.171875 233.976562 258.171875 234.652344 Z M 258.171875 234.652344 " fill-opacity="1" fill-rule="nonzero"/><g clip-path="url(#debb92aed7)"><path fill="#ffaf04" d="M 117.074219 237.707031 L 117.074219 278.742188 L 99.4375 278.742188 L 99.4375 237.589844 C 99.4375 237.589844 106.019531 238.621094 117.074219 237.707031 Z M 117.074219 237.707031 " fill-opacity="1" fill-rule="nonzero"/></g><g clip-path="url(#895c744ada)"><path fill="#ff5b00" d="M 149.410156 230.859375 L 149.410156 278.742188 L 131.769531 278.742188 L 131.769531 235.652344 C 137.152344 234.5625 143.058594 233.035156 149.410156 230.859375 Z M 149.410156 230.859375 " fill-opacity="1" fill-rule="nonzero"/></g><g clip-path="url(#77cc0d4f23)"><path fill="#6871d8" d="M 181.742188 215.574219 L 181.742188 278.742188 L 164.105469 278.742188 L 164.105469 225.007812 C 169.78125 222.421875 175.6875 219.308594 181.742188 215.574219 Z M 181.742188 215.574219 " fill-opacity="1" fill-rule="nonzero"/></g><g clip-path="url(#8ccd312d93)"><path fill="#ffaf04" d="M 214.078125 252.257812 L 214.078125 278.742188 L 196.441406 278.742188 L 196.441406 205.519531 C 202.261719 201.171875 208.140625 196.203125 214.078125 190.558594 L 214.078125 217.042969 C 210.375 221.953125 208.199219 228.039062 208.199219 234.652344 C 208.199219 241.265625 210.375 247.351562 214.078125 252.257812 Z M 214.078125 252.257812 " fill-opacity="1" fill-rule="nonzero"/></g><g clip-path="url(#de3d23a447)"><path fill="#6871d8" d="M 208.199219 131.769531 L 214.078125 181.828125 L 202.320312 175.566406 C 175.863281 231.710938 96.496094 228.773438 96.496094 228.773438 C 96.496094 228.773438 164.105469 200.613281 175.863281 163.042969 L 164.105469 156.8125 Z M 208.199219 131.769531 " fill-opacity="1" fill-rule="nonzero"/></g><path fill="#ffaf04" d="M 152.347656 165.953125 C 152.347656 170.097656 152.347656 170.128906 152.347656 174.273438 L 148.234375 175.742188 C 147.234375 178.152344 146.703125 179.386719 145.734375 181.796875 L 147.617188 185.765625 C 144.675781 188.707031 144.675781 188.707031 141.738281 191.644531 L 137.769531 189.765625 C 135.359375 190.792969 134.121094 191.292969 131.710938 192.292969 L 130.242188 196.4375 C 126.097656 196.4375 126.097656 196.4375 121.925781 196.4375 L 120.453125 192.320312 C 118.042969 191.324219 116.808594 190.792969 114.398438 189.824219 L 110.429688 191.703125 C 107.492188 188.765625 107.492188 188.765625 104.550781 185.824219 L 106.433594 181.859375 C 105.433594 179.445312 104.902344 178.210938 103.90625 175.800781 L 99.789062 174.332031 C 99.761719 170.1875 99.761719 170.1875 99.761719 166.011719 L 103.90625 164.542969 C 104.902344 162.132812 105.402344 160.898438 106.402344 158.488281 L 104.492188 154.519531 C 107.433594 151.582031 107.460938 151.582031 110.371094 148.640625 L 114.339844 150.523438 C 116.75 149.523438 117.984375 148.992188 120.394531 147.996094 L 121.863281 143.878906 C 126.011719 143.847656 126.039062 143.847656 130.183594 143.847656 L 131.652344 147.996094 C 134.0625 148.992188 135.296875 149.492188 137.710938 150.492188 L 141.675781 148.582031 C 144.617188 151.523438 144.617188 151.550781 147.554688 154.460938 L 145.675781 158.429688 C 146.703125 160.839844 147.203125 162.074219 148.203125 164.484375 Z M 131.332031 182.796875 C 138.296875 179.886719 141.617188 171.863281 138.707031 164.894531 C 135.796875 157.898438 127.773438 154.578125 120.808594 157.488281 C 113.8125 160.398438 110.488281 168.425781 113.398438 175.417969 C 116.308594 182.386719 124.335938 185.707031 131.332031 182.796875 Z M 131.332031 182.796875 " fill-opacity="1" fill-rule="nonzero"/><g clip-path="url(#e75bb0576d)"><path fill="#ffaf04" d="M 278.746094 122.949219 C 278.746094 123.816406 278.703125 124.679688 278.621094 125.542969 C 278.535156 126.40625 278.40625 127.261719 278.238281 128.109375 C 278.070312 128.960938 277.859375 129.800781 277.609375 130.628906 C 277.355469 131.457031 277.066406 132.273438 276.734375 133.074219 C 276.402344 133.875 276.03125 134.65625 275.625 135.421875 C 275.214844 136.183594 274.769531 136.925781 274.289062 137.648438 C 273.808594 138.367188 273.292969 139.0625 272.742188 139.734375 C 272.191406 140.402344 271.609375 141.042969 271 141.65625 C 270.386719 142.269531 269.746094 142.851562 269.074219 143.398438 C 268.40625 143.949219 267.710938 144.464844 266.988281 144.945312 C 266.269531 145.429688 265.527344 145.871094 264.761719 146.28125 C 264 146.691406 263.214844 147.058594 262.414062 147.390625 C 261.613281 147.722656 260.800781 148.015625 259.972656 148.265625 C 259.140625 148.515625 258.300781 148.726562 257.453125 148.898438 C 256.601562 149.066406 255.746094 149.191406 254.882812 149.277344 C 254.023438 149.363281 253.15625 149.40625 252.292969 149.40625 C 251.425781 149.40625 250.5625 149.363281 249.699219 149.277344 C 248.835938 149.191406 247.980469 149.066406 247.128906 148.898438 C 246.28125 148.726562 245.441406 148.515625 244.613281 148.265625 C 243.78125 148.015625 242.96875 147.722656 242.167969 147.390625 C 241.367188 147.058594 240.585938 146.691406 239.820312 146.28125 C 239.054688 145.871094 238.3125 145.429688 237.59375 144.945312 C 236.875 144.464844 236.179688 143.949219 235.507812 143.398438 C 234.839844 142.851562 234.195312 142.269531 233.585938 141.65625 C 232.972656 141.042969 232.390625 140.402344 231.839844 139.734375 C 231.292969 139.0625 230.777344 138.367188 230.292969 137.648438 C 229.8125 136.925781 229.367188 136.183594 228.960938 135.421875 C 228.550781 134.65625 228.179688 133.875 227.851562 133.074219 C 227.519531 132.273438 227.226562 131.457031 226.976562 130.628906 C 226.722656 129.800781 226.511719 128.960938 226.34375 128.109375 C 226.175781 127.261719 226.046875 126.40625 225.964844 125.542969 C 225.878906 124.679688 225.835938 123.816406 225.835938 122.949219 C 225.835938 122.082031 225.878906 121.21875 225.964844 120.355469 C 226.046875 119.496094 226.175781 118.636719 226.34375 117.789062 C 226.511719 116.9375 226.722656 116.097656 226.976562 115.269531 C 227.226562 114.441406 227.519531 113.625 227.851562 112.824219 C 228.179688 112.023438 228.550781 111.242188 228.960938 110.476562 C 229.367188 109.714844 229.8125 108.972656 230.292969 108.25 C 230.777344 107.53125 231.292969 106.835938 231.839844 106.167969 C 232.390625 105.496094 232.972656 104.855469 233.585938 104.242188 C 234.195312 103.628906 234.839844 103.046875 235.507812 102.5 C 236.179688 101.949219 236.875 101.433594 237.59375 100.953125 C 238.3125 100.472656 239.054688 100.027344 239.820312 99.617188 C 240.585938 99.210938 241.367188 98.839844 242.167969 98.507812 C 242.96875 98.175781 243.78125 97.882812 244.613281 97.632812 C 245.441406 97.382812 246.28125 97.171875 247.128906 97.003906 C 247.980469 96.832031 248.835938 96.707031 249.699219 96.621094 C 250.5625 96.535156 251.425781 96.492188 252.292969 96.492188 C 253.15625 96.492188 254.023438 96.535156 254.882812 96.621094 C 255.746094 96.707031 256.601562 96.832031 257.453125 97.003906 C 258.300781 97.171875 259.140625 97.382812 259.972656 97.632812 C 260.800781 97.882812 261.613281 98.175781 262.414062 98.507812 C 263.214844 98.839844 264 99.210938 264.761719 99.617188 C 265.527344 100.027344 266.269531 100.472656 266.988281 100.953125 C 267.710938 101.433594 268.40625 101.949219 269.074219 102.5 C 269.746094 103.046875 270.386719 103.628906 271 104.242188 C 271.609375 104.855469 272.191406 105.496094 272.742188 106.167969 C 273.292969 106.835938 273.808594 107.53125 274.289062 108.25 C 274.769531 108.972656 275.214844 109.714844 275.625 110.476562 C 276.03125 111.242188 276.402344 112.023438 276.734375 112.824219 C 277.066406 113.625 277.355469 114.441406 277.609375 115.269531 C 277.859375 116.097656 278.070312 116.9375 278.238281 117.789062 C 278.40625 118.636719 278.535156 119.496094 278.621094 120.355469 C 278.703125 121.21875 278.746094 122.082031 278.746094 122.949219 Z M 278.746094 122.949219 " fill-opacity="1" fill-rule="nonzero"/></g><path fill="#ff5b00" d="M 261.109375 128.828125 C 261.109375 123.964844 257.152344 120.011719 252.292969 120.011719 C 250.671875 120.011719 249.351562 118.691406 249.351562 117.070312 C 249.351562 115.449219 250.671875 114.132812 252.292969 114.132812 C 253.339844 114.132812 254.3125 114.695312 254.839844 115.605469 C 255.65625 117.007812 257.449219 117.492188 258.859375 116.675781 C 260.261719 115.863281 260.742188 114.0625 259.925781 112.660156 C 258.867188 110.828125 257.167969 109.519531 255.230469 108.828125 L 255.230469 108.253906 C 255.230469 106.628906 253.914062 105.3125 252.292969 105.3125 C 250.667969 105.3125 249.351562 106.628906 249.351562 108.253906 L 249.351562 108.792969 C 245.9375 110.011719 243.472656 113.242188 243.472656 117.070312 C 243.472656 121.933594 247.429688 125.890625 252.292969 125.890625 C 253.914062 125.890625 255.230469 127.207031 255.230469 128.828125 C 255.230469 130.449219 253.914062 131.769531 252.292969 131.769531 C 251.246094 131.769531 250.269531 131.203125 249.742188 130.296875 C 248.925781 128.890625 247.132812 128.40625 245.726562 129.226562 C 244.320312 130.035156 243.84375 131.835938 244.65625 133.242188 C 245.714844 135.070312 247.414062 136.378906 249.351562 137.074219 L 249.351562 137.648438 C 249.351562 139.273438 250.667969 140.585938 252.292969 140.585938 C 253.914062 140.585938 255.230469 139.273438 255.230469 137.648438 L 255.230469 137.105469 C 258.644531 135.886719 261.109375 132.65625 261.109375 128.828125 Z M 261.109375 128.828125 " fill-opacity="1" fill-rule="nonzero"/><path fill="#ffaf04" d="M 239.0625 214.164062 L 239.0625 219.953125 C 239.0625 220.777344 238.417969 221.421875 237.59375 221.421875 C 236.769531 221.421875 236.125 220.777344 236.125 219.953125 L 236.125 214.164062 C 236.59375 214.105469 237.09375 214.074219 237.59375 214.074219 C 238.09375 214.074219 238.59375 214.105469 239.0625 214.164062 Z M 239.0625 214.164062 " fill-opacity="1" fill-rule="nonzero"/><path fill="#ffaf04" d="M 224.367188 234.652344 C 224.367188 235.472656 223.71875 236.121094 222.894531 236.121094 L 217.105469 236.121094 C 217.046875 235.652344 217.015625 235.152344 217.015625 234.652344 C 217.015625 234.152344 217.046875 233.652344 217.105469 233.179688 L 222.894531 233.179688 C 223.71875 233.179688 224.367188 233.828125 224.367188 234.652344 Z M 224.367188 234.652344 " fill-opacity="1" fill-rule="nonzero"/><path fill="#ffaf04" d="M 258.171875 234.652344 C 258.171875 235.152344 258.140625 235.652344 258.082031 236.121094 L 252.292969 236.121094 C 251.46875 236.121094 250.820312 235.472656 250.820312 234.652344 C 250.820312 233.828125 251.46875 233.179688 252.292969 233.179688 L 258.082031 233.179688 C 258.140625 233.652344 258.171875 234.152344 258.171875 234.652344 Z M 258.171875 234.652344 " fill-opacity="1" fill-rule="nonzero"/><path fill="#ffaf04" d="M 239.0625 249.347656 L 239.0625 255.140625 C 238.59375 255.199219 238.09375 255.226562 237.59375 255.226562 C 237.09375 255.226562 236.59375 255.199219 236.125 255.140625 L 236.125 249.347656 C 236.125 248.527344 236.769531 247.878906 237.59375 247.878906 C 238.417969 247.878906 239.0625 248.527344 239.0625 249.347656 Z M 239.0625 249.347656 " fill-opacity="1" fill-rule="nonzero"/><path fill="#6871d8" d="M 243.472656 236.121094 L 237.59375 236.121094 C 236.78125 236.121094 236.125 235.464844 236.125 234.652344 L 236.125 228.773438 C 236.125 227.960938 236.78125 227.300781 237.59375 227.300781 C 238.40625 227.300781 239.0625 227.960938 239.0625 228.773438 L 239.0625 233.179688 L 243.472656 233.179688 C 244.285156 233.179688 244.941406 233.839844 244.941406 234.652344 C 244.941406 235.464844 244.285156 236.121094 243.472656 236.121094 Z M 243.472656 236.121094 " fill-opacity="1" fill-rule="nonzero"/></svg>