<svg xmlns="http://www.w3.org/2000/svg" xmlns:xlink="http://www.w3.org/1999/xlink" width="500" zoomAndPan="magnify" viewBox="0 0 375 374.999991" height="500" preserveAspectRatio="xMidYMid meet" version="1.0"><defs><clipPath id="4fcccd2436"><path d="M 2 169 L 373 169 L 373 360.515625 L 2 360.515625 Z M 2 169 " clip-rule="nonzero"/></clipPath><clipPath id="ae1c811196"><path d="M 145 249 L 325 249 L 325 360.515625 L 145 360.515625 Z M 145 249 " clip-rule="nonzero"/></clipPath><clipPath id="996b29c728"><path d="M 43 14.765625 L 219 14.765625 L 219 240 L 43 240 Z M 43 14.765625 " clip-rule="nonzero"/></clipPath><clipPath id="ced981a966"><path d="M 137 172 L 305 172 L 305 360.515625 L 137 360.515625 Z M 137 172 " clip-rule="nonzero"/></clipPath></defs><g clip-path="url(#4fcccd2436)"><path fill="#57b236" d="M 187.464844 169.929688 L 159.753906 170.058594 C 139.472656 170.371094 119.1875 171.023438 99.265625 172.015625 C 83.15625 172.742188 75.21875 175.375 73.789062 175.886719 L 73.585938 175.96875 C 70.179688 177.269531 66.921875 178.875 63.808594 180.777344 C 60.699219 182.683594 57.789062 184.859375 55.078125 187.300781 C 52.371094 189.746094 49.90625 192.417969 47.691406 195.316406 C 45.476562 198.214844 43.542969 201.292969 41.894531 204.546875 C 24.761719 239.347656 13.246094 265.390625 4.523438 289.003906 C 0.0234375 300.984375 1.625 314.375 9.007812 326.621094 C 17.632812 340.960938 33.257812 351.792969 49.796875 354.898438 C 50.144531 354.960938 50.523438 355.011719 50.863281 355.054688 C 61.410156 356.230469 72.734375 356.863281 73.882812 356.925781 C 111.554688 359.320312 149.636719 360.550781 187.464844 360.550781 C 225.292969 360.550781 263.394531 359.347656 301.042969 356.925781 C 302.195312 356.863281 313.515625 356.203125 324.066406 355.054688 C 324.425781 355.011719 324.789062 354.960938 325.128906 354.898438 C 341.667969 351.792969 357.292969 340.960938 365.921875 326.621094 C 373.308594 314.347656 374.902344 300.984375 370.40625 289.003906 C 361.710938 265.390625 350.164062 239.355469 333.03125 204.546875 C 331.386719 201.292969 329.453125 198.214844 327.238281 195.316406 C 325.019531 192.417969 322.558594 189.746094 319.847656 187.300781 C 317.136719 184.859375 314.226562 182.683594 311.117188 180.777344 C 308.007812 178.875 304.746094 177.269531 301.339844 175.96875 L 301.136719 175.886719 C 299.6875 175.375 291.769531 172.742188 275.660156 172.015625 C 255.761719 171.023438 235.425781 170.371094 215.171875 170.058594 Z M 187.464844 169.929688 " fill-opacity="1" fill-rule="nonzero"/></g><path fill="#99badc" d="M 242.875 250.417969 L 324.007812 355.054688 C 324.363281 355.011719 324.730469 354.960938 325.070312 354.898438 C 341.632812 351.792969 357.285156 340.960938 365.929688 326.621094 C 373.324219 314.347656 374.917969 300.984375 370.414062 289.003906 C 361.71875 265.390625 350.128906 239.355469 332.988281 204.546875 C 331.332031 201.289062 329.394531 198.207031 327.167969 195.308594 C 324.945312 192.40625 322.472656 189.734375 319.753906 187.292969 C 317.035156 184.847656 314.117188 182.675781 310.996094 180.773438 C 307.878906 178.867188 304.609375 177.265625 301.195312 175.96875 Z M 242.875 250.417969 " fill-opacity="1" fill-rule="nonzero"/><g clip-path="url(#ae1c811196)"><path fill="#4193d2" d="M 237.492188 249.097656 L 145.113281 359.835938 C 159.34375 360.167969 173.558594 360.335938 187.761719 360.335938 C 225.648438 360.335938 263.824219 359.132812 301.492188 356.710938 C 302.652344 356.652344 313.988281 355.984375 324.558594 354.839844 Z M 237.492188 249.097656 " fill-opacity="1" fill-rule="nonzero"/></g><g clip-path="url(#996b29c728)"><path fill="#dd4247" d="M 190.960938 41.953125 C 174.242188 24.914062 153.054688 14.792969 130.726562 14.832031 L 130.121094 14.832031 C 84.78125 15.5625 44.507812 57.902344 43.378906 103.097656 C 43.203125 113.15625 44.910156 122.882812 48.5 132.28125 L 48.558594 132.433594 C 48.777344 133.882812 67.148438 175.089844 124.28125 236.367188 C 124.480469 236.640625 124.695312 236.902344 124.925781 237.152344 C 125.28125 237.546875 125.671875 237.902344 126.101562 238.21875 C 126.53125 238.535156 126.988281 238.804688 127.472656 239.027344 C 127.953125 239.25 128.457031 239.421875 128.976562 239.539062 C 129.492188 239.660156 130.019531 239.722656 130.550781 239.734375 C 131.085938 239.746094 131.613281 239.703125 132.136719 239.609375 C 132.660156 239.511719 133.167969 239.363281 133.660156 239.160156 C 134.152344 238.960938 134.621094 238.710938 135.0625 238.414062 C 135.503906 238.117188 135.910156 237.777344 136.285156 237.398438 C 158.382812 215.214844 177.941406 190.980469 194.960938 164.695312 C 207.277344 145.445312 212.636719 133.105469 212.855469 132.570312 L 212.96875 132.28125 C 216.53125 122.972656 218.238281 113.332031 218.097656 103.367188 C 217.773438 80.828125 207.789062 59.140625 190.960938 41.953125 Z M 190.960938 41.953125 " fill-opacity="1" fill-rule="nonzero"/></g><path fill="#ffffff" d="M 250.277344 247.648438 L 332.34375 353.207031 C 330.148438 353.90625 327.921875 354.46875 325.660156 354.898438 C 325.3125 354.960938 324.933594 355.011719 324.59375 355.054688 C 319.160156 355.65625 313.53125 356.121094 309.179688 356.433594 L 237.449219 264.179688 Z M 250.277344 247.648438 " fill-opacity="1" fill-rule="nonzero"/><g clip-path="url(#ced981a966)"><path fill="#fca84c" d="M 250.277344 247.671875 L 304.816406 177.527344 L 304.96875 177.339844 C 303.9375 176.855469 302.882812 176.414062 301.8125 176.019531 L 301.609375 175.9375 C 300.398438 175.503906 294.507812 173.554688 282.941406 172.523438 L 281.816406 174.054688 L 137.394531 359.828125 C 145.824219 360.058594 154.253906 360.234375 162.683594 360.355469 L 237.449219 264.199219 Z M 250.277344 247.671875 " fill-opacity="1" fill-rule="nonzero"/></g><path fill="#ba2525" d="M 130.960938 138.085938 C 111.871094 138.085938 96.328125 122.566406 96.429688 103.605469 C 96.527344 84.648438 112.125 68.863281 130.960938 68.84375 C 149.792969 68.820312 165.363281 84.664062 165.492188 103.644531 C 165.621094 122.625 150.054688 138.058594 130.960938 138.085938 Z M 130.960938 138.085938 " fill-opacity="1" fill-rule="nonzero"/></svg>