<svg xmlns="http://www.w3.org/2000/svg" xmlns:xlink="http://www.w3.org/1999/xlink" width="500" zoomAndPan="magnify" viewBox="0 0 375 374.999991" height="500" preserveAspectRatio="xMidYMid meet" version="1.0"><defs><clipPath id="6b0e8adc50"><path d="M 93.75 93.75 L 281.25 93.75 L 281.25 281.25 L 93.75 281.25 Z M 93.75 93.75 " clip-rule="nonzero"/></clipPath></defs><path fill="#f9f1ed" d="M 134.375 234.375 L 134.375 278.125 L 278.125 278.125 L 278.125 125 C 262.589844 125 250 137.589844 250 153.125 L 250 187.5 C 237.917969 187.5 228.125 197.292969 228.125 209.375 L 228.125 234.375 Z M 134.375 234.375 " fill-opacity="1" fill-rule="nonzero"/><path fill="#f9f1ed" d="M 121.640625 200.789062 C 121.785156 201.550781 121.875 202.324219 121.875 203.125 C 121.875 202.324219 121.789062 201.546875 121.640625 200.789062 Z M 121.640625 200.789062 " fill-opacity="1" fill-rule="nonzero"/><path fill="#f9f1ed" d="M 121.875 203.125 C 121.875 203.964844 121.785156 204.785156 121.628906 205.582031 C 121.789062 204.789062 121.875 203.964844 121.875 203.125 Z M 121.875 203.125 " fill-opacity="1" fill-rule="nonzero"/><path fill="#f9f1ed" d="M 121.027344 198.695312 C 121.117188 198.929688 121.175781 199.175781 121.25 199.414062 C 121.175781 199.175781 121.117188 198.929688 121.027344 198.695312 Z M 121.027344 198.695312 " fill-opacity="1" fill-rule="nonzero"/><path fill="#f9f1ed" d="M 118.914062 195.132812 C 118.816406 193.640625 118.75 192.140625 118.75 190.625 C 118.75 189.078125 118.875 187.5625 118.976562 186.039062 C 116.683594 188.816406 113.257812 190.625 109.375 190.625 C 113.222656 190.625 116.621094 192.398438 118.914062 195.132812 Z M 118.914062 195.132812 " fill-opacity="1" fill-rule="nonzero"/><path fill="#f9f1ed" d="M 130.871094 156.039062 C 130.746094 156.554688 130.589844 157.058594 130.402344 157.546875 C 130.589844 157.058594 130.746094 156.558594 130.871094 156.039062 Z M 130.871094 156.039062 " fill-opacity="1" fill-rule="nonzero"/><path fill="#f9f1ed" d="M 130.148438 158.207031 C 129.875 158.824219 129.554688 159.417969 129.1875 159.976562 C 129.558594 159.417969 129.875 158.820312 130.148438 158.207031 Z M 130.148438 158.207031 " fill-opacity="1" fill-rule="nonzero"/><path fill="#f9f1ed" d="M 120.117188 196.828125 C 120.144531 196.878906 120.167969 196.929688 120.195312 196.976562 C 120.167969 196.929688 120.148438 196.878906 120.117188 196.828125 Z M 120.117188 196.828125 " fill-opacity="1" fill-rule="nonzero"/><path fill="#f9f1ed" d="M 131.25 153.125 C 131.25 153.898438 131.15625 154.644531 131.023438 155.378906 C 131.15625 154.644531 131.25 153.898438 131.25 153.125 Z M 131.25 153.125 " fill-opacity="1" fill-rule="nonzero"/><path fill="#f9f1ed" d="M 121.632812 175.746094 C 121.785156 176.519531 121.875 177.308594 121.875 178.125 C 121.875 177.308594 121.789062 176.515625 121.632812 175.746094 Z M 121.632812 175.746094 " fill-opacity="1" fill-rule="nonzero"/><path fill="#f9f1ed" d="M 128.6875 160.632812 C 128.4375 160.960938 128.179688 161.28125 127.902344 161.585938 C 128.183594 161.28125 128.4375 160.960938 128.6875 160.632812 Z M 128.6875 160.632812 " fill-opacity="1" fill-rule="nonzero"/><path fill="#f9f1ed" d="M 121.875 178.125 C 121.875 178.917969 121.785156 179.695312 121.640625 180.445312 C 121.789062 179.695312 121.875 178.921875 121.875 178.125 Z M 121.875 178.125 " fill-opacity="1" fill-rule="nonzero"/><path fill="#f9f1ed" d="M 120.242188 184.183594 C 120.210938 184.246094 120.179688 184.308594 120.144531 184.367188 C 120.179688 184.308594 120.210938 184.246094 120.242188 184.183594 Z M 120.242188 184.183594 " fill-opacity="1" fill-rule="nonzero"/><path fill="#f9f1ed" d="M 121.273438 181.769531 C 121.195312 182.023438 121.132812 182.277344 121.039062 182.523438 C 121.132812 182.277344 121.195312 182.019531 121.273438 181.769531 Z M 121.273438 181.769531 " fill-opacity="1" fill-rule="nonzero"/><path fill="#f9f1ed" d="M 127.136719 162.335938 C 126.898438 162.554688 126.648438 162.753906 126.394531 162.949219 C 126.648438 162.753906 126.898438 162.554688 127.136719 162.335938 Z M 127.136719 162.335938 " fill-opacity="1" fill-rule="nonzero"/><path fill="#f9f1ed" d="M 231.15625 137.582031 C 231.132812 137.5625 231.105469 137.539062 231.085938 137.523438 C 231.105469 137.539062 231.132812 137.558594 231.15625 137.582031 Z M 231.15625 137.582031 " fill-opacity="1" fill-rule="nonzero"/><path fill="#f9f1ed" d="M 227.648438 134.867188 C 227.578125 134.820312 227.507812 134.773438 227.445312 134.726562 C 227.507812 134.773438 227.578125 134.820312 227.648438 134.867188 Z M 227.648438 134.867188 " fill-opacity="1" fill-rule="nonzero"/><path fill="#f9f1ed" d="M 182.789062 122.042969 C 182.742188 122.046875 182.695312 122.054688 182.644531 122.054688 C 182.695312 122.054688 182.742188 122.046875 182.789062 122.042969 Z M 182.789062 122.042969 " fill-opacity="1" fill-rule="nonzero"/><path fill="#f9f1ed" d="M 192.257812 122.050781 C 190.683594 121.9375 189.101562 121.875 187.5 121.875 C 189.101562 121.875 190.683594 121.945312 192.257812 122.050781 Z M 192.257812 122.050781 " fill-opacity="1" fill-rule="nonzero"/><path fill="#f9f1ed" d="M 223.917969 132.351562 C 223.835938 132.304688 223.753906 132.257812 223.671875 132.203125 C 223.753906 132.253906 223.835938 132.300781 223.917969 132.351562 Z M 223.917969 132.351562 " fill-opacity="1" fill-rule="nonzero"/><path fill="#6accef" d="M 234.488281 140.511719 C 233.410156 139.5 232.296875 138.523438 231.15625 137.578125 C 231.132812 137.558594 231.105469 137.539062 231.085938 137.519531 C 229.96875 136.601562 228.820312 135.714844 227.648438 134.867188 C 227.578125 134.816406 227.507812 134.769531 227.445312 134.722656 C 226.292969 133.898438 225.121094 133.101562 223.917969 132.351562 C 223.835938 132.300781 223.753906 132.25 223.671875 132.199219 C 222.457031 131.445312 221.222656 130.722656 219.957031 130.039062 C 212.90625 126.253906 205.128906 123.660156 196.875 122.53125 C 195.351562 122.320312 193.808594 122.160156 192.257812 122.046875 C 190.683594 121.945312 189.101562 121.875 187.5 121.875 C 185.914062 121.875 184.347656 121.933594 182.789062 122.042969 C 182.742188 122.046875 182.695312 122.054688 182.644531 122.054688 C 181.125 122.164062 179.617188 122.324219 178.125 122.527344 C 169.867188 123.65625 162.078125 126.238281 155.027344 130.023438 C 145.460938 135.164062 137.253906 142.503906 131.074219 151.367188 C 131.15625 151.945312 131.25 152.523438 131.25 153.125 C 131.25 153.898438 131.15625 154.644531 131.023438 155.378906 C 130.980469 155.601562 130.925781 155.820312 130.871094 156.042969 C 130.746094 156.558594 130.589844 157.0625 130.402344 157.550781 C 130.320312 157.769531 130.242188 157.992188 130.148438 158.207031 C 129.871094 158.824219 129.558594 159.417969 129.1875 159.976562 C 129.035156 160.210938 128.851562 160.414062 128.6875 160.632812 C 128.4375 160.960938 128.183594 161.28125 127.902344 161.585938 C 127.660156 161.851562 127.402344 162.097656 127.136719 162.335938 C 126.898438 162.554688 126.648438 162.753906 126.394531 162.949219 C 125.625 163.550781 124.804688 164.074219 123.910156 164.484375 C 122.710938 167.398438 121.777344 170.445312 120.980469 173.542969 C 121.261719 174.253906 121.488281 174.984375 121.636719 175.75 C 121.789062 176.515625 121.875 177.308594 121.875 178.125 C 121.875 178.921875 121.789062 179.695312 121.640625 180.445312 C 121.554688 180.902344 121.40625 181.332031 121.273438 181.769531 C 121.191406 182.023438 121.132812 182.277344 121.039062 182.523438 C 120.820312 183.105469 120.542969 183.648438 120.242188 184.1875 C 120.210938 184.25 120.179688 184.3125 120.144531 184.371094 C 119.800781 184.960938 119.410156 185.515625 118.976562 186.039062 C 118.875 187.5625 118.75 189.078125 118.75 190.625 C 118.75 192.140625 118.816406 193.640625 118.914062 195.132812 C 119.359375 195.664062 119.761719 196.226562 120.117188 196.832031 C 120.144531 196.882812 120.167969 196.929688 120.195312 196.980469 C 120.511719 197.535156 120.800781 198.101562 121.027344 198.699219 C 121.117188 198.929688 121.175781 199.179688 121.25 199.414062 C 121.394531 199.871094 121.550781 200.320312 121.636719 200.792969 C 121.789062 201.546875 121.875 202.324219 121.875 203.125 C 121.875 203.964844 121.789062 204.789062 121.628906 205.582031 C 121.46875 206.375 121.230469 207.136719 120.929688 207.867188 C 128.582031 237.492188 155.484375 259.375 187.5 259.375 C 202.699219 259.375 216.742188 254.429688 228.125 246.078125 L 228.125 209.375 C 228.125 197.292969 237.917969 187.5 250 187.5 L 250 161.992188 C 246.257812 153.835938 240.945312 146.574219 234.488281 140.511719 Z M 195.527344 195.097656 C 191.09375 199.53125 183.90625 199.53125 179.472656 195.097656 C 176.691406 192.316406 175.546875 188.296875 176.449219 184.46875 L 187.5 137.5 L 198.550781 184.46875 C 199.453125 188.296875 198.308594 192.316406 195.527344 195.097656 Z M 195.527344 195.097656 " fill-opacity="1" fill-rule="nonzero"/><path fill="#f9f1ed" d="M 126.394531 162.949219 C 126.648438 162.753906 126.898438 162.554688 127.136719 162.335938 C 127.402344 162.097656 127.660156 161.847656 127.902344 161.585938 C 128.179688 161.28125 128.441406 160.960938 128.6875 160.632812 C 128.851562 160.414062 129.039062 160.207031 129.1875 159.976562 C 129.554688 159.417969 129.875 158.824219 130.148438 158.207031 C 130.246094 157.992188 130.320312 157.769531 130.402344 157.550781 C 130.585938 157.0625 130.746094 156.558594 130.871094 156.042969 C 130.925781 155.824219 130.980469 155.601562 131.023438 155.378906 C 131.15625 154.644531 131.25 153.898438 131.25 153.125 C 131.25 146.222656 125.652344 140.625 118.75 140.625 C 111.847656 140.625 106.25 146.222656 106.25 153.125 C 106.25 160.027344 111.847656 165.625 118.75 165.625 C 120.59375 165.625 122.332031 165.199219 123.910156 164.484375 C 124.804688 164.074219 125.625 163.546875 126.394531 162.949219 Z M 126.394531 162.949219 " fill-opacity="1" fill-rule="nonzero"/><path fill="#f9f1ed" d="M 130.40625 157.550781 C 130.320312 157.769531 130.246094 157.992188 130.152344 158.207031 C 130.246094 157.992188 130.320312 157.769531 130.40625 157.550781 Z M 130.40625 157.550781 " fill-opacity="1" fill-rule="nonzero"/><path fill="#f9f1ed" d="M 131.023438 155.378906 C 130.980469 155.601562 130.925781 155.820312 130.871094 156.042969 C 130.925781 155.820312 130.980469 155.601562 131.023438 155.378906 Z M 131.023438 155.378906 " fill-opacity="1" fill-rule="nonzero"/><path fill="#f9f1ed" d="M 129.191406 159.976562 C 129.039062 160.207031 128.855469 160.414062 128.691406 160.632812 C 128.855469 160.414062 129.039062 160.210938 129.191406 159.976562 Z M 129.191406 159.976562 " fill-opacity="1" fill-rule="nonzero"/><path fill="#f9f1ed" d="M 127.902344 161.582031 C 127.660156 161.84375 127.402344 162.09375 127.136719 162.335938 C 127.402344 162.09375 127.660156 161.847656 127.902344 161.582031 Z M 127.902344 161.582031 " fill-opacity="1" fill-rule="nonzero"/><path fill="#f9f1ed" d="M 123.910156 164.484375 C 124.804688 164.074219 125.625 163.550781 126.394531 162.949219 C 125.625 163.546875 124.804688 164.074219 123.910156 164.484375 Z M 123.910156 164.484375 " fill-opacity="1" fill-rule="nonzero"/><path fill="#f9f1ed" d="M 118.976562 186.039062 C 119.410156 185.515625 119.796875 184.957031 120.144531 184.367188 C 120.179688 184.308594 120.210938 184.242188 120.242188 184.183594 C 120.546875 183.652344 120.8125 183.101562 121.039062 182.523438 C 121.132812 182.277344 121.195312 182.019531 121.273438 181.765625 C 121.410156 181.332031 121.554688 180.898438 121.640625 180.445312 C 121.785156 179.695312 121.875 178.917969 121.875 178.125 C 121.875 177.308594 121.785156 176.519531 121.632812 175.746094 C 121.480469 174.984375 121.257812 174.25 120.976562 173.539062 C 119.148438 168.914062 114.65625 165.625 109.375 165.625 C 102.472656 165.625 96.875 171.222656 96.875 178.125 C 96.875 185.027344 102.472656 190.625 109.375 190.625 C 113.257812 190.625 116.683594 188.816406 118.976562 186.039062 Z M 118.976562 186.039062 " fill-opacity="1" fill-rule="nonzero"/><path fill="#f9f1ed" d="M 121.640625 180.445312 C 121.554688 180.898438 121.410156 181.335938 121.273438 181.769531 C 121.40625 181.332031 121.554688 180.902344 121.640625 180.445312 Z M 121.640625 180.445312 " fill-opacity="1" fill-rule="nonzero"/><path fill="#f9f1ed" d="M 120.980469 173.542969 C 121.257812 174.25 121.480469 174.988281 121.636719 175.75 C 121.488281 174.984375 121.257812 174.25 120.980469 173.542969 Z M 120.980469 173.542969 " fill-opacity="1" fill-rule="nonzero"/><path fill="#f9f1ed" d="M 121.039062 182.523438 C 120.8125 183.101562 120.546875 183.65625 120.242188 184.1875 C 120.542969 183.648438 120.820312 183.101562 121.039062 182.523438 Z M 121.039062 182.523438 " fill-opacity="1" fill-rule="nonzero"/><path fill="#f9f1ed" d="M 120.144531 184.367188 C 119.796875 184.957031 119.410156 185.515625 118.976562 186.039062 C 119.410156 185.511719 119.800781 184.960938 120.144531 184.367188 Z M 120.144531 184.367188 " fill-opacity="1" fill-rule="nonzero"/><path fill="#f9f1ed" d="M 121.628906 205.582031 C 121.785156 204.785156 121.875 203.964844 121.875 203.125 C 121.875 202.324219 121.785156 201.550781 121.640625 200.789062 C 121.546875 200.316406 121.398438 199.867188 121.253906 199.414062 C 121.179688 199.175781 121.117188 198.929688 121.03125 198.695312 C 120.796875 198.101562 120.519531 197.527344 120.199219 196.976562 C 120.171875 196.929688 120.148438 196.878906 120.117188 196.828125 C 119.761719 196.230469 119.359375 195.664062 118.914062 195.132812 C 116.621094 192.398438 113.222656 190.625 109.375 190.625 C 102.472656 190.625 96.875 196.222656 96.875 203.125 C 96.875 210.027344 102.472656 215.625 109.375 215.625 C 114.601562 215.625 119.0625 212.414062 120.929688 207.867188 C 121.230469 207.132812 121.464844 206.371094 121.628906 205.582031 Z M 121.628906 205.582031 " fill-opacity="1" fill-rule="nonzero"/><path fill="#f9f1ed" d="M 120.929688 207.867188 C 121.230469 207.132812 121.46875 206.371094 121.628906 205.578125 C 121.464844 206.371094 121.230469 207.132812 120.929688 207.867188 Z M 120.929688 207.867188 " fill-opacity="1" fill-rule="nonzero"/><path fill="#f9f1ed" d="M 121.25 199.414062 C 121.398438 199.867188 121.546875 200.316406 121.636719 200.789062 C 121.550781 200.316406 121.394531 199.867188 121.25 199.414062 Z M 121.25 199.414062 " fill-opacity="1" fill-rule="nonzero"/><path fill="#f9f1ed" d="M 120.195312 196.976562 C 120.515625 197.527344 120.792969 198.101562 121.027344 198.695312 C 120.800781 198.097656 120.511719 197.53125 120.195312 196.976562 Z M 120.195312 196.976562 " fill-opacity="1" fill-rule="nonzero"/><path fill="#f9f1ed" d="M 118.914062 195.132812 C 119.355469 195.664062 119.757812 196.234375 120.117188 196.832031 C 119.761719 196.226562 119.359375 195.664062 118.914062 195.132812 Z M 118.914062 195.132812 " fill-opacity="1" fill-rule="nonzero"/><path fill="#5db2d1" d="M 206.25 109.375 L 206.25 96.875 L 168.75 96.875 L 168.75 109.375 Z M 206.25 109.375 " fill-opacity="1" fill-rule="nonzero"/><path fill="#f9f1ed" d="M 182.789062 122.042969 C 184.351562 121.9375 185.914062 121.875 187.5 121.875 C 189.101562 121.875 190.683594 121.9375 192.257812 122.050781 C 193.8125 122.15625 195.351562 122.324219 196.875 122.535156 L 196.875 109.375 L 178.125 109.375 L 178.125 122.527344 C 179.617188 122.324219 181.121094 122.164062 182.644531 122.054688 C 182.695312 122.054688 182.742188 122.046875 182.789062 122.042969 Z M 182.789062 122.042969 " fill-opacity="1" fill-rule="nonzero"/><path fill="#f9f1ed" d="M 196.875 122.535156 C 195.351562 122.324219 193.8125 122.15625 192.257812 122.050781 C 193.808594 122.164062 195.351562 122.328125 196.875 122.535156 Z M 196.875 122.535156 " fill-opacity="1" fill-rule="nonzero"/><path fill="#f9f1ed" d="M 187.5 121.875 C 185.914062 121.875 184.351562 121.9375 182.789062 122.042969 C 184.347656 121.933594 185.914062 121.875 187.5 121.875 Z M 187.5 121.875 " fill-opacity="1" fill-rule="nonzero"/><path fill="#f9f1ed" d="M 182.644531 122.058594 C 181.121094 122.164062 179.617188 122.328125 178.125 122.53125 C 179.617188 122.324219 181.125 122.167969 182.644531 122.058594 Z M 182.644531 122.058594 " fill-opacity="1" fill-rule="nonzero"/><path fill="#63c9b5" d="M 223.917969 132.351562 C 225.121094 133.105469 226.292969 133.898438 227.445312 134.726562 C 227.511719 134.773438 227.582031 134.820312 227.648438 134.867188 C 228.820312 135.714844 229.964844 136.601562 231.085938 137.523438 C 231.109375 137.539062 231.132812 137.5625 231.15625 137.582031 C 232.300781 138.523438 233.410156 139.5 234.488281 140.515625 L 250 125 L 237.5 112.5 L 219.957031 130.042969 C 221.222656 130.722656 222.457031 131.445312 223.671875 132.203125 C 223.753906 132.253906 223.835938 132.300781 223.917969 132.351562 Z M 223.917969 132.351562 " fill-opacity="1" fill-rule="nonzero"/><path fill="#f9f1ed" d="M 231.082031 137.523438 C 229.960938 136.601562 228.820312 135.714844 227.644531 134.867188 C 228.820312 135.714844 229.964844 136.601562 231.082031 137.523438 Z M 231.082031 137.523438 " fill-opacity="1" fill-rule="nonzero"/><path fill="#f9f1ed" d="M 227.441406 134.722656 C 226.289062 133.898438 225.117188 133.101562 223.914062 132.351562 C 225.117188 133.105469 226.292969 133.898438 227.441406 134.722656 Z M 227.441406 134.722656 " fill-opacity="1" fill-rule="nonzero"/><path fill="#f9f1ed" d="M 234.488281 140.511719 C 233.410156 139.5 232.300781 138.523438 231.15625 137.578125 C 232.296875 138.523438 233.410156 139.5 234.488281 140.511719 Z M 234.488281 140.511719 " fill-opacity="1" fill-rule="nonzero"/><path fill="#f9f1ed" d="M 219.957031 130.042969 C 221.222656 130.722656 222.457031 131.445312 223.671875 132.203125 C 222.457031 131.445312 221.222656 130.726562 219.957031 130.042969 Z M 219.957031 130.042969 " fill-opacity="1" fill-rule="nonzero"/><path fill="#e05346" d="M 187.5 137.5 L 176.449219 184.46875 C 175.550781 188.296875 176.695312 192.316406 179.472656 195.097656 C 183.90625 199.53125 191.09375 199.53125 195.527344 195.097656 C 198.308594 192.316406 199.453125 188.296875 198.550781 184.46875 Z M 187.5 190.625 L 187.5 184.375 Z M 187.5 190.625 " fill-opacity="1" fill-rule="nonzero"/><path fill="#f9f1ed" d="M 134.375 146.875 L 107.007812 119.507812 C 104.523438 117.023438 103.125 113.648438 103.125 110.132812 C 103.125 102.808594 109.058594 96.875 116.382812 96.875 C 119.898438 96.875 123.273438 98.273438 125.757812 100.757812 L 156.25 131.25 Z M 134.375 146.875 " fill-opacity="1" fill-rule="nonzero"/><g clip-path="url(#6b0e8adc50)"><path fill="#31324d" d="M 278.125 121.875 C 261.808594 121.875 248.394531 134.449219 247.011719 150.414062 C 244.601562 146.851562 241.890625 143.535156 238.921875 140.496094 L 252.210938 127.210938 C 252.796875 126.625 253.125 125.832031 253.125 125 C 253.125 124.167969 252.796875 123.375 252.210938 122.789062 L 239.710938 110.289062 C 238.488281 109.070312 236.511719 109.070312 235.289062 110.289062 L 219.316406 126.265625 C 213.253906 123.257812 206.757812 121.101562 200 119.898438 L 200 112.5 L 206.25 112.5 C 207.976562 112.5 209.375 111.101562 209.375 109.375 L 209.375 96.875 C 209.375 95.148438 207.976562 93.75 206.25 93.75 L 168.75 93.75 C 167.023438 93.75 165.625 95.148438 165.625 96.875 L 165.625 109.375 C 165.625 111.101562 167.023438 112.5 168.75 112.5 L 175 112.5 L 175 119.863281 C 168.246094 121.058594 161.742188 123.226562 155.660156 126.242188 L 127.964844 98.542969 C 124.867188 95.453125 120.757812 93.75 116.382812 93.75 C 107.351562 93.75 100 101.101562 100 110.132812 C 100 114.507812 101.703125 118.625 104.800781 121.714844 L 120.789062 137.707031 C 120.113281 137.617188 119.445312 137.5 118.75 137.5 C 110.132812 137.5 103.125 144.507812 103.125 153.125 C 103.125 156.789062 104.445312 160.117188 106.566406 162.785156 C 99.289062 164.117188 93.75 170.472656 93.75 178.125 C 93.75 183.253906 96.269531 187.773438 100.097656 190.625 C 96.269531 193.476562 93.75 197.996094 93.75 203.125 C 93.75 211.742188 100.757812 218.75 109.375 218.75 C 113.378906 218.75 117 217.191406 119.769531 214.707031 C 122.46875 222.320312 126.378906 229.28125 131.25 235.398438 L 131.25 278.125 C 131.25 279.851562 132.648438 281.25 134.375 281.25 L 278.125 281.25 C 279.851562 281.25 281.25 279.851562 281.25 278.125 L 281.25 125 C 281.25 123.273438 279.851562 121.875 278.125 121.875 Z M 225.046875 129.371094 L 237.5 116.917969 L 245.582031 125 L 234.382812 136.195312 C 233.007812 135.015625 231.582031 133.894531 230.125 132.820312 C 229.546875 132.394531 228.941406 132.003906 228.351562 131.59375 C 227.496094 131.003906 226.644531 130.410156 225.765625 129.855469 C 225.523438 129.703125 225.292969 129.523438 225.046875 129.371094 Z M 171.875 100 L 203.125 100 L 203.125 106.25 L 171.875 106.25 Z M 181.25 119.03125 L 181.25 112.5 L 193.75 112.5 L 193.75 119.039062 C 193.65625 119.027344 193.570312 119.035156 193.476562 119.023438 C 191.496094 118.855469 189.507812 118.75 187.5 118.75 C 185.582031 118.75 183.675781 118.855469 181.777344 119.007812 C 181.601562 119.023438 181.429688 119.015625 181.25 119.03125 Z M 106.25 110.132812 C 106.25 104.542969 110.796875 100 116.382812 100 C 119.089844 100 121.632812 101.054688 123.550781 102.964844 L 149.960938 129.375 C 144.1875 132.914062 138.898438 137.273438 134.28125 142.359375 L 109.21875 117.292969 C 107.304688 115.382812 106.25 112.839844 106.25 110.132812 Z M 118.75 143.75 C 123.527344 143.75 127.441406 147.355469 128.007812 151.984375 C 128.007812 151.992188 128.007812 152.003906 128.007812 152.011719 C 128.0625 152.382812 128.125 152.742188 128.125 153.125 C 128.125 153.691406 128.054688 154.242188 127.960938 154.777344 C 127.925781 154.964844 127.882812 155.152344 127.835938 155.335938 C 127.75 155.683594 127.640625 156.019531 127.519531 156.347656 C 127.445312 156.546875 127.378906 156.753906 127.289062 156.945312 C 127.097656 157.378906 126.871094 157.789062 126.617188 158.183594 C 126.464844 158.421875 126.285156 158.636719 126.109375 158.859375 C 125.96875 159.039062 125.824219 159.222656 125.671875 159.390625 C 125.464844 159.617188 125.25 159.835938 125.023438 160.039062 C 124.882812 160.167969 124.726562 160.289062 124.578125 160.40625 C 123.980469 160.882812 123.332031 161.308594 122.617188 161.632812 C 122.605469 161.636719 122.601562 161.648438 122.589844 161.652344 C 121.414062 162.1875 120.117188 162.5 118.75 162.5 C 113.582031 162.5 109.375 158.292969 109.375 153.125 C 109.375 147.957031 113.582031 143.75 118.75 143.75 Z M 100 178.125 C 100 172.957031 104.207031 168.75 109.375 168.75 C 113.316406 168.75 116.679688 171.199219 118.066406 174.648438 C 118.070312 174.664062 118.070312 174.675781 118.074219 174.6875 C 118.296875 175.246094 118.460938 175.8125 118.574219 176.382812 C 118.679688 176.945312 118.75 177.527344 118.75 178.125 C 118.75 180.835938 117.5625 182.84375 116.570312 184.050781 C 116.554688 184.066406 116.550781 184.089844 116.535156 184.105469 C 114.8125 186.164062 112.257812 187.5 109.375 187.5 C 104.207031 187.5 100 183.292969 100 178.125 Z M 109.375 212.5 C 104.207031 212.5 100 208.292969 100 203.125 C 100 197.957031 104.207031 193.75 109.375 193.75 C 112.234375 193.75 114.769531 195.066406 116.488281 197.089844 C 116.5 197.105469 116.507812 197.125 116.519531 197.140625 C 117.539062 198.355469 118.75 200.378906 118.75 203.125 C 118.75 203.75 118.683594 204.359375 118.566406 204.949219 C 118.445312 205.53125 118.273438 206.105469 118.042969 206.664062 C 116.644531 210.085938 113.289062 212.5 109.375 212.5 Z M 124.464844 206.964844 C 124.550781 206.628906 124.648438 206.304688 124.710938 205.957031 C 124.886719 205.023438 125 204.082031 125 203.125 C 125 202.164062 124.886719 201.226562 124.714844 200.304688 C 124.652344 199.960938 124.554688 199.632812 124.46875 199.289062 C 124.332031 198.765625 124.179688 198.242188 123.984375 197.734375 C 123.820312 197.285156 123.636719 196.851562 123.429688 196.421875 C 123.285156 196.121094 123.117188 195.835938 122.953125 195.542969 C 122.648438 195 122.339844 194.464844 121.976562 193.964844 C 121.914062 192.863281 121.875 191.75 121.875 190.625 C 121.875 189.476562 121.949219 188.347656 122.027344 187.21875 C 122.390625 186.714844 122.695312 186.175781 122.992188 185.628906 C 123.148438 185.355469 123.304688 185.089844 123.4375 184.8125 C 123.644531 184.378906 123.824219 183.9375 123.992188 183.480469 C 124.179688 182.980469 124.335938 182.476562 124.46875 181.960938 C 124.554688 181.617188 124.652344 181.285156 124.714844 180.929688 C 124.886719 180.011719 125 179.078125 125 178.125 C 125 177.207031 124.890625 176.289062 124.722656 175.378906 C 124.648438 174.976562 124.539062 174.59375 124.441406 174.207031 C 124.367188 173.941406 124.335938 173.667969 124.246094 173.402344 C 124.914062 170.90625 125.617188 168.707031 126.375 166.734375 C 126.554688 166.632812 126.710938 166.507812 126.882812 166.402344 C 127.210938 166.199219 127.539062 165.996094 127.851562 165.769531 C 128.410156 165.367188 128.933594 164.929688 129.429688 164.464844 C 129.707031 164.207031 129.960938 163.929688 130.21875 163.648438 C 130.621094 163.210938 131.003906 162.757812 131.351562 162.273438 C 131.554688 161.992188 131.753906 161.710938 131.9375 161.414062 C 132.308594 160.828125 132.640625 160.222656 132.929688 159.589844 C 133.042969 159.347656 133.148438 159.105469 133.25 158.855469 C 133.535156 158.148438 133.757812 157.414062 133.933594 156.660156 C 133.992188 156.398438 134.046875 156.140625 134.097656 155.878906 C 134.257812 154.976562 134.375 154.058594 134.375 153.125 C 134.375 152.8125 134.355469 152.507812 134.324219 152.179688 C 144.960938 137.5 161.117188 127.960938 178.84375 125.59375 C 180.070312 125.429688 181.277344 125.308594 182.480469 125.214844 C 182.710938 125.195312 182.9375 125.167969 183.167969 125.152344 C 185.875 124.96875 188.554688 124.972656 191.277344 125.136719 C 191.488281 125.148438 191.699219 125.148438 191.914062 125.160156 C 193.375 125.261719 194.851562 125.417969 196.363281 125.621094 C 205.746094 126.914062 214.652344 130.207031 222.511719 135.171875 C 222.84375 135.382812 223.164062 135.617188 223.492188 135.832031 C 224.351562 136.398438 225.207031 136.96875 226.039062 137.574219 C 226.710938 138.0625 227.359375 138.578125 228.007812 139.09375 C 228.464844 139.453125 228.929688 139.804688 229.375 140.175781 C 230.210938 140.867188 231.019531 141.589844 231.820312 142.328125 C 238.007812 147.992188 243.179688 154.84375 246.875 162.679688 L 246.875 184.570312 C 234.558594 186.113281 225 196.648438 225 209.378906 L 225 244.476562 C 213.960938 252.179688 201.027344 256.25 187.5 256.25 C 157.886719 256.25 132 236.464844 124.207031 208.019531 C 124.320312 207.675781 124.375 207.316406 124.464844 206.964844 Z M 275 275 L 137.5 275 L 137.5 242.210938 C 150.574219 254.867188 168.304688 262.5 187.5 262.5 C 200.882812 262.5 213.726562 258.859375 225 251.933594 L 225 253.125 L 231.25 253.125 L 231.25 209.375 C 231.25 199.035156 239.660156 190.625 250 190.625 C 251.726562 190.625 253.125 189.226562 253.125 187.5 L 253.125 153.125 C 253.125 140.398438 262.683594 129.863281 275 128.320312 Z M 275 275 " fill-opacity="1" fill-rule="nonzero"/></g><path fill="#31324d" d="M 234.722656 166.300781 L 240.273438 163.429688 C 231.75 146.925781 215.726562 135.210938 197.398438 132.089844 L 196.347656 138.25 C 212.753906 141.039062 227.097656 151.523438 234.722656 166.300781 Z M 234.722656 166.300781 " fill-opacity="1" fill-rule="nonzero"/><path fill="#31324d" d="M 178.648438 242.242188 C 176.710938 241.914062 174.777344 241.472656 172.898438 240.929688 L 171.167969 246.9375 C 173.273438 247.539062 175.4375 248.039062 177.601562 248.402344 Z M 178.648438 242.242188 " fill-opacity="1" fill-rule="nonzero"/><path fill="#31324d" d="M 148.152344 225.523438 C 146.835938 224.074219 145.585938 222.535156 144.4375 220.949219 L 139.375 224.613281 C 140.65625 226.382812 142.054688 228.105469 143.53125 229.730469 Z M 148.152344 225.523438 " fill-opacity="1" fill-rule="nonzero"/><path fill="#31324d" d="M 167.328125 238.984375 C 165.507812 238.230469 163.714844 237.371094 162.007812 236.433594 L 158.996094 241.914062 C 160.910156 242.964844 162.910156 243.921875 164.941406 244.757812 Z M 167.328125 238.984375 " fill-opacity="1" fill-rule="nonzero"/><path fill="#31324d" d="M 156.996094 233.316406 C 155.394531 232.191406 153.835938 230.960938 152.359375 229.664062 L 148.230469 234.355469 C 149.875 235.804688 151.617188 237.171875 153.40625 238.429688 Z M 156.996094 233.316406 " fill-opacity="1" fill-rule="nonzero"/><path fill="#31324d" d="M 187.5 201.546875 C 191.367188 201.546875 195.003906 200.039062 197.738281 197.304688 C 201.308594 193.734375 202.75 188.667969 201.59375 183.753906 L 190.539062 136.785156 C 190.210938 135.371094 188.949219 134.375 187.5 134.375 C 186.050781 134.375 184.789062 135.371094 184.457031 136.785156 L 173.40625 183.757812 C 172.25 188.667969 173.695312 193.734375 177.261719 197.304688 C 179.996094 200.039062 183.632812 201.546875 187.5 201.546875 Z M 179.492188 185.1875 L 187.5 151.144531 L 195.507812 185.183594 C 196.164062 187.980469 195.347656 190.855469 193.320312 192.886719 C 190.210938 195.992188 184.789062 195.992188 181.679688 192.886719 C 179.652344 190.855469 178.835938 187.976562 179.492188 185.1875 Z M 179.492188 185.1875 " fill-opacity="1" fill-rule="nonzero"/><path fill="#31324d" d="M 184.375 184.375 L 190.625 184.375 L 190.625 190.625 L 184.375 190.625 Z M 184.375 184.375 " fill-opacity="1" fill-rule="nonzero"/></svg>